<?xml version="1.0" encoding="utf-8"?>
<!-- Generator: Adobe Illustrator 24.3.0, SVG Export Plug-In . SVG Version: 6.00 Build 0)  -->
<svg version="1.1" id="Layer_1" xmlns="http://www.w3.org/2000/svg" xmlns:xlink="http://www.w3.org/1999/xlink" x="0px" y="0px"
	 viewBox="0 0 512 512" style="enable-background:new 0 0 512 512;" xml:space="preserve">
<style type="text/css">
	.st0{fill:#E32526;}
	.st1{fill:#FFFFFF;}
</style>
<g>
	<path id="XMLID_11_" class="st0" d="M512,256c0,141.31-114.54,256-256,256C114.69,512,0,397.31,0,256S114.69,0,256,0
		C397.46,0,512,114.69,512,256"/>
	<path class="st1" d="M183.88,204.8c5.85-1.02,10.09,2.49,9.65,7.75c-0.44,5.41-5.56,10.53-11.26,11.56
		c-5.71,1.02-10.09-2.49-9.65-7.9C173.2,211.09,178.18,205.82,183.88,204.8 M121.71,243.13c4.97-18.72,11.12-37.74,17.12-51.93
		c-12.14,15.8-25.01,35.99-36.72,56.17C108.84,245.76,115.42,244.44,121.71,243.13 M224.69,228.64c4.53-0.88,14.63,5.27,9.8,10.97
		c-4.97,5.85-10.68,4.68-19.6,8.34c-5.12,2.05-8.92,6.58-14.48,14.63c-7.02,10.39-10.24,20.48-10.83,28.09
		c0,2.19-0.29,3.36-1.46,4.1c-11.85,7.75-15.36,1.9-15.07-5.12c0.15-1.61,0.73-4.24,1.76-7.61c-9.07,13.6-17.12,20.48-22.38,21.5
		c-7.02,1.32-10.97-3.66-10.24-12.73c0.29-4.1,1.61-8.92,3.95-15.07c2.49-6.14,6.29-14.63,9.8-21.65c0.88-1.76,1.76-3.51,2.49-5.12
		c-5.41,1.02-12.87,2.63-21.8,4.68c-0.15,0.29-0.29,0.44-0.29,0.44c-3.8,17.7-4.1,24.43-6.14,39.79
		c-0.88,6.73,0.44,14.04-7.61,15.07c-8.05,1.17-10.68-7.17-10.83-14.19c-0.15-7.17,1.17-15.8,6.29-36.86
		c-8.34,2.19-17.26,4.53-25.89,7.31c-0.15,0.15-0.15,0.29-0.15,0.29c-14.48,26.62-28.82,59.54-31.31,70.07
		c-1.9,8.48-5.71,11.12-11.41,8.63c-5.71-2.49-8.92-8.19-6.88-14.48c3.8-11.41,15.07-37.01,25.16-55.44c-0.15,0,0-0.29,0.29-0.73
		c-7.46,2.93-14.34,6-20.33,9.36c-3.95,2.19-8.92,0.15-9.95-4.24c-0.73-3.22-2.19-9.36,5.56-12.73c11.7-5.12,24.28-9.36,36.72-13.02
		c26.62-44.91,59.83-91.14,69.34-90.26c4.1,0.29,3.51,4.83,7.17,8.92c3.66,4.1,4.1,6.44-0.15,17.12
		c-8.78,21.94-8.19,16.82-16.53,51.05c15.51-2.63,28.96-4.1,30.28-4.24c4.24-0.59,11.7,2.34,7.75,10.68c0,0-4.1,7.17-5.71,10.24
		c-2.93,5.12-6.73,12.73-8.92,17.99c-1.46,3.07-2.05,5.41-2.19,7.17c-0.15,1.17,0.29,1.76,1.17,1.61c1.17-0.15,2.93-1.46,4.97-3.66
		c2.05-2.34,8.92-8.05,21.21-28.82l3.22-6.73c1.02-2.05,2.49-5.56,2.78-7.17c0.29-2.34,0.44-3.07,2.49-4.24
		c3.22-2.05,9.07-3.8,12.58-1.61c3.22,2.05,2.34,6-0.29,10.53C219.57,229.52,222.21,229.08,224.69,228.64 M434.91,263.61
		c6-7.46,15.36-24.43,15.95-29.11c0.29-2.19-0.29-2.93-2.05-2.78c-2.05,0.29-6.73,4.1-11.12,9.51
		c-6.44,7.75-15.21,23.55-15.95,28.67c-0.29,2.05,0.59,3.51,2.05,3.36C426.28,272.97,430.37,269.31,434.91,263.61 M471.04,251.32
		c2.63-4.1,8.19-2.78,6.73,1.02c-1.32,3.36-3.66,8.63-9.95,15.95c-7.61,9.36-14.63,13.9-20.92,14.77c-5.12,0.73-8.78-1.46-9.65-6
		l-0.29-0.88c0-0.88-0.44-1.17-0.88-1.17c-0.44,0-0.88,0.44-1.61,1.17c-6.44,6.73-11.26,10.97-17.26,11.85
		c-8.92,1.17-14.04-5.71-12.73-15.8c-2.34,3.51-4.83,6.88-7.02,9.36c-6.88,7.75-12.58,12.58-17.85,13.31
		c-7.17,0.88-10.83-4.1-9.65-13.02c0.59-4.1,2.05-8.92,4.68-14.92c2.63-6,6.88-14.34,10.83-21.07c3.07-5.56,6.14-11.85,6.58-13.9
		c0.29-1.61,0.59-2.05,1.9-2.93c1.61-1.17,4.97-2.63,6.88-2.78c4.97-0.44,11.7,3.22,7.31,10.83l-1.61,2.93
		c-0.29,0.59-3.22,6-4.97,9.07c-3.22,4.97-7.31,12.43-9.8,17.55c-1.61,3.07-2.34,5.27-2.63,7.02c-0.15,1.17,0.15,1.76,1.02,1.61
		c1.17-0.15,3.07-1.32,5.27-3.51c2.19-2.34,3.66-3.95,8.63-10.53l1.76-2.34c1.46-1.9,12.87-16.82,16.38-20.48
		c9.22-10.97,19.6-18.87,26.33-19.6c4.39-0.59,7.9,1.46,9.65,5.41c1.17,3.36,1.46,3.51,4.39,4.83c4.68,1.9,6.29,3.51,5.85,5.85
		c-0.15,1.76-0.88,3.07-3.8,7.75c-2.05,3.66-4.39,7.75-6.14,10.97c-3.51,6.88-5.41,11.56-2.05,12.87c1.32,0.44,3.66-0.73,6.58-3.95
		C466.21,258.78,468.55,255.27,471.04,251.32 M410.48,216.65c5.71-1.02,10.83-6.29,11.26-11.56c0.44-5.41-3.95-8.78-9.65-7.75
		c-5.85,1.02-10.83,6.29-11.26,11.56C400.38,214.16,404.77,217.67,410.48,216.65 M322.85,191.2c-12,15.8-24.87,35.84-36.57,55.88
		c6.88-1.61,13.46-2.93,19.6-4.1C310.86,224.4,316.85,205.39,322.85,191.2 M325.78,239.76c3.51-0.44,14.63-1.9,14.19,2.93
		c-0.73,7.61-3.51,7.46-13.6,9.65c-1.9,0.44-3.95,0.88-6,1.32c-0.15,0.44-0.29,0.88-0.44,0.88c-3.8,17.7-4.1,24.43-6.14,39.79
		c-0.88,6.73,0.44,14.04-7.61,15.07c-8.05,1.17-10.83-7.17-10.83-14.19c0-12.58,6.29-37.01,6.44-37.16
		c-8.19,2.05-16.97,4.39-25.75,7.17c-10.39,17.7-29.4,60.27-31.74,70.95c-1.9,8.48-5.71,11.12-11.41,8.63
		c-5.71-2.49-8.78-8.05-6.88-14.48c5.27-17.55,25.31-55.73,25.6-56.47c-7.46,2.93-14.34,6.14-20.19,9.51
		c-3.66,2.05-8.34,0.15-9.36-4.39c-0.73-3.22-2.19-9.36,5.12-12.73c11.56-5.27,24.14-9.65,36.72-13.31
		c26.62-44.76,59.68-90.84,69.19-89.97c4.1,0.29,3.51,4.83,7.17,8.92c3.66,3.95,4.1,6.44-0.15,17.12
		c-8.78,21.94-8.05,16.82-16.53,51.05C324.17,239.91,325.05,239.76,325.78,239.76 M338.51,301.79c6.58-0.73,25.89-4.83,26.04-26.04
		c0-8.19-7.75-12.43-9.65-18.14c-1.17-3.51-0.88-10.83,4.68-13.02c6.88-2.63,8.34,1.76,10.68,5.12c1.02,1.32,4.1,1.02,5.27,0
		c1.46-1.61,3.66-3.95,4.68-7.9c0.88-3.66-3.07-9.65-14.19-9.36c-3.95,0.15-9.51,0.73-17.26,8.19c-3.66,3.36-15.07,19.16-6.58,32.62
		c2.34,3.66,7.75,8.19,4.24,11.56c-5.56,5.41-15.07-2.93-16.82-5.41c-0.88-1.17-3.22-2.49-4.68-0.15c-0.88,1.32-5.12,8.92-4.53,11.7
		C321.97,299.89,333.39,302.37,338.51,301.79"/>
</g>
</svg>
