<?xml version="1.0" encoding="utf-8"?>
<!-- Generator: Adobe Illustrator 24.3.0, SVG Export Plug-In . SVG Version: 6.00 Build 0)  -->
<svg version="1.1" id="Layer_1" xmlns="http://www.w3.org/2000/svg" xmlns:xlink="http://www.w3.org/1999/xlink" x="0px" y="0px"
	 viewBox="0 0 512 512" style="enable-background:new 0 0 512 512;" xml:space="preserve">
<style type="text/css">
	.st0{fill:#9D0A0E;}
	.st1{fill:#FFFFFF;}
</style>
<g id="XMLID_1_">
	<rect id="XMLID_3_" y="63.38" class="st0" width="512" height="385.33"/>
	<path id="XMLID_4_" class="st1" d="M268.91,198.47c0,1.82-0.56,3.65-2.24,5.05c-1.68,1.4-4.49,2.52-9.12,2.52h-9.4v-15.01h8.98
		c4.21,0,7.15,0.84,8.98,2.24C268.06,194.54,268.91,196.36,268.91,198.47"/>
	<path id="XMLID_5_" class="st1" d="M261.19,180.51c1.68-1.26,2.52-3.09,2.67-5.75c0-1.82-0.56-3.37-1.82-4.63
		c-1.26-1.12-3.51-1.96-7.15-1.96h-6.59v14.31h4.63C256.7,182.48,259.51,181.77,261.19,180.51"/>
	<path id="XMLID_8_" class="st1" d="M279,199.59c0-7.01-4.63-12.2-12.06-14.31c1.96-0.98,3.65-2.24,4.77-3.79
		c1.54-2.1,2.24-4.49,2.24-7.43c0-3.65-1.4-7.29-4.49-9.96c-3.09-2.81-7.57-4.49-13.89-4.49h-17.39v55.27h20.34l0,0
		c7.29,0,12.34-1.96,15.71-4.91C277.6,206.88,279,203.1,279,199.59 M298.36,225.4h-81.5v-76.73h81.5V225.4z"/>
	<path id="XMLID_9_" class="st1" d="M167.35,180.51c1.68-1.26,2.52-3.09,2.67-5.75c0-1.82-0.56-3.37-1.82-4.63
		c-1.26-1.12-3.51-1.96-7.15-1.96h-6.59v14.31h4.63C162.72,182.48,165.66,181.77,167.35,180.51"/>
	<path id="XMLID_10_" class="st1" d="M172.26,193.28c-1.82-1.26-4.77-2.24-8.98-2.24h-8.98v15.01h9.4c4.63,0,7.43-1.12,9.12-2.52
		s2.24-3.23,2.24-5.05C174.92,196.36,174.08,194.54,172.26,193.28"/>
	<path id="XMLID_13_" class="st1" d="M185.16,199.59c0-7.01-4.63-12.2-12.06-14.31c1.96-0.98,3.65-2.24,4.77-3.79
		c1.54-2.1,2.24-4.49,2.24-7.43c0-3.65-1.4-7.29-4.49-9.96c-3.09-2.81-7.57-4.49-13.89-4.49h-17.39v55.27h20.34l0,0
		c7.29,0,12.34-1.96,15.71-4.91C183.76,206.88,185.16,203.1,185.16,199.59 M204.52,225.4h-81.5v-76.73h81.5L204.52,225.4
		L204.52,225.4z"/>
	<path id="XMLID_16_" class="st1" d="M376.07,200.01l-1.26,0.84c-6.31,3.79-13.19,5.89-19.36,5.89c-13.33,0-22.16-8-22.16-19.5
		c0-11.22,9.26-19.64,21.88-19.64c6.45,0,12.2,1.68,19.22,5.47l1.26,0.7v-10.24l-0.56-0.28c-7.86-3.09-13.89-4.49-19.78-4.49
		c-9.26,0-17.25,3.09-23,8.28c-5.75,5.19-9.12,12.48-9.12,20.9c0,5.89,2.38,12.76,7.57,18.1c5.19,5.47,13.05,9.4,23.99,9.4l0,0
		c8.98,0,15.29-1.96,20.9-4.77l0.42-0.28L376.07,200.01L376.07,200.01z M392.21,225.4h-81.5v-76.73h81.5V225.4z"/>
	<polygon id="XMLID_17_" class="st1" points="144.06,268.04 156.41,268.04 156.41,358.52 145.32,358.52 84.73,288.8 84.73,358.52 
		72.52,358.52 72.52,268.04 83.04,268.04 144.06,338.32 	"/>
	<polygon id="XMLID_18_" class="st1" points="179.83,268.04 231.03,268.04 231.03,279.55 192.74,279.55 192.74,307.18 
		229.77,307.18 229.77,318.82 192.74,318.82 192.74,346.88 232.29,346.88 232.29,358.52 179.83,358.52 	"/>
	<polygon id="XMLID_19_" class="st1" points="369.48,268.04 382.39,268.04 345.78,358.94 342.83,358.94 313.23,285.3 283.35,358.94 
		280.55,358.94 244.08,268.04 257.12,268.04 282.09,330.47 307.2,268.04 319.54,268.04 344.79,330.47 	"/>
	<path id="XMLID_20_" class="st1" d="M417.46,320.65l-9.82-6.03c-6.17-3.79-10.52-7.43-13.19-11.08c-2.67-3.65-3.93-7.86-3.93-12.62
		c0-7.15,2.52-12.91,7.43-17.39c4.91-4.49,11.36-6.73,19.22-6.73c7.57,0,14.45,2.1,20.76,6.31v14.73c-6.59-6.31-13.61-9.4-21.04-9.4
		c-4.21,0-7.72,0.98-10.38,2.95c-2.67,1.96-4.07,4.49-4.07,7.57c0,2.67,0.98,5.19,2.95,7.57c1.96,2.38,5.19,4.91,9.68,7.43
		l9.96,5.89c11.08,6.59,16.55,15.01,16.55,25.25c0,7.29-2.38,13.19-7.29,17.67c-4.91,4.49-11.22,6.73-18.94,6.73
		c-8.98,0-17.11-2.81-24.41-8.28v-16.41c7.01,8.84,15.15,13.33,24.27,13.33c4.07,0,7.43-1.12,10.1-3.37
		c2.67-2.24,4.07-5.05,4.07-8.56C429.38,330.89,425.45,325.56,417.46,320.65"/>
</g>
</svg>
