<?xml version="1.0" encoding="utf-8"?>
<!-- Generator: Adobe Illustrator 24.3.0, SVG Export Plug-In . SVG Version: 6.00 Build 0)  -->
<svg version="1.1" id="Layer_1" xmlns="http://www.w3.org/2000/svg" xmlns:xlink="http://www.w3.org/1999/xlink" x="0px" y="0px"
	 viewBox="0 0 512 512" style="enable-background:new 0 0 512 512;" xml:space="preserve">
<style type="text/css">
	.st0{fill:#003B70;}
	.st1{fill:#D9261C;}
</style>
<g id="layer1" transform="translate(-297.9885,-472.70039)">
	<g id="g4940" transform="matrix(2.4662885,0,0,-2.4662885,-772.5069,719.18727)">
		<path id="path1274" class="st0" d="M459.66-20.46l-0.14-0.14c-2.42-2.42-5.26-3.69-8.1-3.69c-5.97,0-10.37,4.55-10.37,10.8
			s4.4,10.8,10.37,10.8c2.84,0,5.68-1.28,8.1-3.84l0.14-0.14l3.84,4.69l-0.14,0c-3.27,3.84-7.1,5.68-11.79,5.68
			s-9.09-1.56-12.22-4.55c-3.41-3.13-5.26-7.53-5.26-12.79s1.85-9.66,5.26-12.79c3.13-2.84,7.53-4.55,12.22-4.55
			c4.69,0,8.67,1.85,11.79,5.68l0.14,0.14L459.66-20.46z"/>
		<path id="path1276" class="st0" d="M467.48-30.26h6.82V3.13h-6.82V-30.26L467.48-30.26z"/>
		<path id="path1278" class="st0" d="M501.01-23.02c-1.85-1.14-3.55-1.71-4.97-1.71c-2.27,0-3.27,1.14-3.27,3.69v17.76h6.96v6.25
			h-6.96v10.37l-6.68-3.41V3.13h-5.83v-6.25h5.83v-18.76c0-5.12,2.98-8.67,7.53-8.67c3.13,0,4.97,0.85,6.11,1.56l0,0l1.71,6.39
			L501.01-23.02L501.01-23.02z"/>
		<path id="path1280" class="st0" d="M506.69-30.26h6.82V3.13h-6.82V-30.26L506.69-30.26z"/>
		<path id="path1282" class="st0" d="M622.5,15.78v-31.83l2.13,3.27c0,0,9.52,13.78,10.8,15.63h4.26
			c-0.85-1.28-8.38-11.51-8.38-11.51s9.8-20.46,10.37-21.6h-4.12c-0.28,0.43-8.67,18.33-8.67,18.33l-6.25-8.81v-9.52h-3.84V13.5
			C618.95,13.79,621.51,15.35,622.5,15.78L622.5,15.78z M590.39-0.99c1.99,2.98,5.12,4.69,8.81,4.69c7.39,0,11.23-4.69,11.23-13.5
			v-20.46h-3.98v19.47c0,7.53-2.56,11.08-8.24,11.08c-5.4,0-8.67-4.12-8.67-11.08v-19.47h-3.84V2.99h3.84v-5.12L590.39-0.99z
			 M566.51,3.7c7.53,0,11.23-3.41,11.23-10.51v-23.45h-3.84v4.83l-0.71-0.85c-2.84-3.13-6.11-4.69-10.09-4.69
			c-3.13,0-10.23,0.99-10.23,10.51c0,7.67,6.39,10.51,12.36,10.51c2.98,0,5.97-0.71,8.1-1.85l0.71-0.43v4.69
			c0,5.26-2.56,7.96-7.67,7.96c-3.13,0-5.97-0.85-8.81-2.42c-0.28,0.57-1.14,2.56-1.42,3.13C558.84,2.7,562.68,3.7,566.51,3.7
			L566.51,3.7z M556.57-20.17c0-4.97,2.56-7.67,7.25-7.67c3.98,0,7.53,1.85,9.95,5.26l0.14,0.14v7.25l-0.28,0.14
			c-2.56,1.42-4.97,1.99-8.81,1.99C559.69-13.07,556.57-15.77,556.57-20.17z M526.44,15.78V-1.84l0.71,0.85
			c2.84,3.13,6.11,4.69,9.66,4.69c7.25,0,11.51-6.11,11.51-16.77c0-10.8-4.83-17.9-12.08-17.9c-3.55,0-6.54,1.42-9.09,4.4
			l-0.71,0.85v-4.55h-3.84V13.5C522.89,13.79,525.59,15.35,526.44,15.78L526.44,15.78z M526.59-4.83L526.59-4.83l-0.14-17.34v-0.14
			c2.13-3.27,5.68-5.26,9.38-5.26c5.83,0,8.67,4.83,8.67,14.49c0,8.53-3.27,13.5-8.81,13.5C532.27,0.29,529.14-1.42,526.59-4.83"/>
		<path id="path1284" class="st1" d="M517.63,9.1c-6.25,8.81-16.63,14.21-27.14,14.21s-20.89-5.26-27.14-14.21l-0.28-0.43h7.82
			l0.14,0.14c5.4,5.54,12.36,8.53,19.61,8.53c7.25,0,14.21-2.98,19.61-8.53l0.14-0.14h7.82L517.63,9.1z"/>
	</g>
</g>
</svg>
