<?xml version="1.0" encoding="utf-8"?>
<!-- Generator: Adobe Illustrator 26.5.0, SVG Export Plug-In . SVG Version: 6.00 Build 0)  -->
<svg version="1.1" id="Layer_1" xmlns="http://www.w3.org/2000/svg" xmlns:xlink="http://www.w3.org/1999/xlink" x="0px" y="0px"
	 viewBox="0 0 512 512" style="enable-background:new 0 0 512 512;" xml:space="preserve">
<style type="text/css">
	.st0{fill:#B29B62;}
	.st1{fill:#B7B2AD;}
	.st2{fill:#A48E5C;}
	.st3{fill:#C9B88F;}
	.st4{fill:#DAD7D4;}
	.st5{fill:#C8C4C0;}
	.st6{fill:#98928C;}
	.st7{fill:#E3DAC5;}
	.st8{fill:url(#XMLID_00000075140489465563558400000014128173810921494427_);}
	.st9{fill:url(#XMLID_00000114753325438564625340000000391217075412852866_);}
</style>
<g id="XMLID_1_">
	<path id="XMLID_5_" d="M115.31,281.67h0.84l1.96,2.95l1.96-2.95h0.84V287h-0.98v-4.07l-1.96,2.95h-0.14l-1.96-2.95V287h-0.7
		 M111.66,282.51h-1.68v-0.7h4.21v0.7h-1.68v4.63h-0.7v-4.63H111.66z"/>
	<path id="XMLID_6_" class="st0" d="M52.6,239.45c-36.33,0-49.94,34.23-49.94,34.23v-42.22h99.73v40.96
		C102.54,272.55,88.93,239.45,52.6,239.45"/>
	<path id="XMLID_7_" class="st1" d="M52.6,216.3c-36.33,0-49.94-34.09-49.94-34.09v41.24h99.73v-41.24
		C102.54,182.22,88.93,216.3,52.6,216.3"/>
	<path id="XMLID_8_" class="st2" d="M3.51,231.45v42.22c0,0-0.7,3.09-2.95,13.33H0v-57.37"/>
	<path id="XMLID_9_" class="st3" d="M104.64,287.14c-2.1-9.82-2.95-12.62-2.95-12.62v-42.92l3.51-1.68v57.37"/>
	<path id="XMLID_10_" class="st4" d="M104.64,168.89c-2.1,9.96-2.95,12.2-2.95,12.2v42.36l3.51,2.81v-57.37"/>
	<path id="XMLID_11_" class="st5" d="M3.51,223.46v-43.48c0,0-0.7-0.98-2.95-11.08H0v57.37"/>
	<polyline id="XMLID_12_" class="st6" points="101.84,222.76 3.51,222.76 0,226.26 105.35,226.26 	"/>
	<polyline id="XMLID_13_" class="st7" points="0,229.77 3.51,233.28 101.84,233.28 105.35,229.77 	"/>
	
		<linearGradient id="XMLID_00000142870682160572550760000013900584961972647861_" gradientUnits="userSpaceOnUse" x1="-420.6979" y1="639.2914" x2="-419.181" y2="639.2914" gradientTransform="matrix(65 0 0 -65 27345 41747.0977)">
		<stop  offset="0" style="stop-color:#D5D2CE"/>
		<stop  offset="0.5" style="stop-color:#D5D2CE"/>
		<stop  offset="1" style="stop-color:#98938C"/>
	</linearGradient>
	<path id="XMLID_14_" style="fill:url(#XMLID_00000142870682160572550760000013900584961972647861_);" d="M104.08,168.89
		c-2.24,10.52-14.73,45.03-51.48,45.03c-36.89,0-49.24-34.65-51.48-45.03H0.56c1.12,10.52,2.95,16.41,2.95,16.41
		s12.76,32.12,49.1,32.12s49.1-32.12,49.1-32.12s1.68-5.89,2.95-16.41"/>
	
		<linearGradient id="XMLID_00000062899797818751625310000000150372112210554786_" gradientUnits="userSpaceOnUse" x1="-420.6979" y1="638.9249" x2="-419.181" y2="638.9249" gradientTransform="matrix(65 0 0 -65 27345 41792.9922)">
		<stop  offset="0" style="stop-color:#E2D7C0"/>
		<stop  offset="0.5" style="stop-color:#998559"/>
		<stop  offset="1" style="stop-color:#998559"/>
	</linearGradient>
	<path id="XMLID_15_" style="fill:url(#XMLID_00000062899797818751625310000000150372112210554786_);" d="M3.51,270.73
		c0,0-1.82,5.89-2.95,16.41h0.56c2.1-10.52,14.59-45.03,51.48-45.03s49.24,34.51,51.48,45.03h0.56
		c-1.12-10.52-2.95-16.41-2.95-16.41s-12.91-32.12-49.1-32.12S3.51,270.73,3.51,270.73"/>
	<polygon id="XMLID_16_" points="206.2,286.16 206.2,253.05 161.6,253.05 161.6,286.16 156.55,286.16 156.55,215.46 161.6,215.46 
		161.6,248.28 206.2,248.28 206.2,215.46 211.39,215.46 211.39,286.16 	"/>
	<polygon id="XMLID_17_" points="232.71,286.16 232.71,215.46 237.9,215.46 237.9,286.16 	"/>
	<polygon id="XMLID_18_" points="259.23,286.16 259.23,215.46 264.42,215.46 264.42,281.39 305.24,281.39 305.24,286.16 	"/>
	<polygon id="XMLID_19_" points="335.25,220.37 335.25,286.16 330.06,286.16 330.06,220.37 305.8,220.37 305.8,215.46 
		359.52,215.46 359.52,220.37 	"/>
	<path id="XMLID_22_" d="M401.46,287.42c-21.04,0-34.93-17.11-34.93-36.33v-0.14c0-19.22,14.03-36.47,35.07-36.47
		c21.04,0,34.93,17.11,34.93,36.33v0.14C436.53,270.17,422.65,287.42,401.46,287.42z M431.2,250.81c0-17.39-12.48-31.84-29.74-31.84
		c-17.25,0-29.46,14.17-29.46,31.56v0.14c0,17.39,12.48,31.84,29.74,31.84c17.25,0,29.46-14.17,29.46-31.56V250.81z"/>
	<polygon id="XMLID_23_" points="508.07,286.16 459.12,223.46 459.12,286.16 454.21,286.16 454.21,215.46 458.98,215.46 
		507.09,277.04 507.09,215.46 512,215.46 512,286.16 	"/>
	<polygon id="XMLID_24_" points="192.04,342.69 190.21,342.69 180.81,313.09 171.41,342.69 169.45,342.69 157.81,308.32 
		160.47,308.32 170.57,338.76 179.97,308.18 181.8,308.18 191.19,338.76 201.29,308.32 203.68,308.32 	"/>
	<path id="XMLID_27_" d="M223.88,343.11c-9.68,0-16.13-8.28-16.13-17.53v-0.14c0-9.4,6.45-17.67,16.13-17.67s16.13,8.28,16.13,17.53
		v0.14C240.01,334.69,233.56,343.11,223.88,343.11z M237.48,325.44c0-8.42-5.75-15.43-13.75-15.43c-7.86,0-13.61,6.87-13.61,15.29
		v0.14c0,8.42,5.75,15.43,13.75,15.43C231.87,340.87,237.48,333.99,237.48,325.44L237.48,325.44z"/>
	<path id="XMLID_30_" d="M271.15,342.55l-10.24-14.17h-10.52v14.17H248v-34.23h13.47c6.87,0,11.5,4.07,11.5,9.68v0.14
		c0,5.75-3.93,8.98-9.4,9.82l10.52,14.59H271.15L271.15,342.55z M270.59,318.14c0-4.63-3.37-7.43-9.26-7.43h-10.94v15.43h10.8
		C266.66,326,270.59,323.19,270.59,318.14L270.59,318.14L270.59,318.14z"/>
	<polygon id="XMLID_31_" points="281.25,342.55 281.25,308.32 283.63,308.32 283.63,340.16 302.43,340.16 302.43,342.55 	"/>
	<path id="XMLID_34_" d="M320.25,342.55h-10.66v-34.23h10.66c10.1,0,16.97,7.43,16.97,16.97v0.14
		C337.22,334.97,330.35,342.55,320.25,342.55z M334.83,325.44c0-8.14-5.61-14.73-14.59-14.73h-8.28v29.46h8.28
		C329.22,340.16,334.83,333.71,334.83,325.44L334.83,325.44z"/>
	<polygon id="XMLID_35_" points="375.51,342.69 373.55,342.69 364.29,313.09 354.89,342.69 352.93,342.69 341.29,308.32 
		343.95,308.32 354.05,338.76 363.45,308.18 365.27,308.18 374.67,338.76 384.63,308.32 387.16,308.32 	"/>
	<rect id="XMLID_36_" x="394.59" y="308.32" width="2.38" height="34.23"/>
	<path id="XMLID_39_" d="M417.46,342.55h-10.66v-34.23h10.66c10.1,0,16.97,7.43,16.97,16.97v0.14
		C434.43,334.97,427.56,342.55,417.46,342.55z M432.04,325.44c0-8.14-5.61-14.73-14.59-14.73h-8.28v29.46h8.28
		C426.43,340.16,432.04,333.71,432.04,325.44L432.04,325.44z"/>
	<polygon id="XMLID_40_" points="442.56,342.55 442.56,308.32 465.43,308.32 465.43,310.71 444.95,310.71 444.95,324.03 
		463.32,324.03 463.32,326.42 444.95,326.42 444.95,340.16 465.57,340.16 465.57,342.55 	"/>
</g>
</svg>
