<?xml version="1.0" encoding="utf-8"?>
<!-- Generator: Adobe Illustrator 26.5.0, SVG Export Plug-In . SVG Version: 6.00 Build 0)  -->
<svg version="1.1" id="Layer_1" xmlns="http://www.w3.org/2000/svg" xmlns:xlink="http://www.w3.org/1999/xlink" x="0px" y="0px"
	 viewBox="0 0 512 512" style="enable-background:new 0 0 512 512;" xml:space="preserve">
<style type="text/css">
	.st0{fill:#FFC300;}
</style>
<g id="XMLID_1_">
	<path id="XMLID_6_" class="st0" d="M336.46,80.46c40.37,0,73.14,170.28,73.14,380.34h58.51c0-226.16-58.95-409.6-131.66-409.6
		c-41.4,0-78.26,55.15-102.4,141.31c-24.14-86.16-61-141.31-102.4-141.31C58.95,51.2,0,234.64,0,460.8h58.51
		c0-210.07,32.77-380.34,73.14-380.34s73.14,157.11,73.14,351.09h58.51C263.31,237.71,296.08,80.46,336.46,80.46"/>
	<path class="st0" d="M497.37,431.54c7.9,0,14.63,6.29,14.63,14.48c0,8.34-6.58,14.63-14.63,14.63c-7.9,0-14.63-6.29-14.63-14.63
		C482.74,437.83,489.47,431.54,497.37,431.54 M497.37,458.61c6.73,0,12-5.41,12-12.58c0-7.02-5.27-12.43-12-12.43
		c-6.88,0-12,5.41-12,12.43C485.38,453.19,490.64,458.61,497.37,458.61z M491.67,437.54h6.58c4.1,0,6,1.61,6,4.83
		c0,3.07-1.9,4.39-4.39,4.68l4.83,7.61h-2.93l-4.68-7.31h-2.63v7.31h-2.63L491.67,437.54L491.67,437.54z M494.45,445.15h2.78
		c2.34,0,4.53-0.15,4.53-2.78c0-2.34-1.9-2.63-3.8-2.63h-3.51V445.15L494.45,445.15z"/>
</g>
</svg>
