<?xml version="1.0" encoding="utf-8"?>
<!-- Generator: Adobe Illustrator 26.5.0, SVG Export Plug-In . SVG Version: 6.00 Build 0)  -->
<svg version="1.1" id="Ñëîé_1" xmlns="http://www.w3.org/2000/svg" xmlns:xlink="http://www.w3.org/1999/xlink" x="0px" y="0px"
	 viewBox="0 0 512 512" style="enable-background:new 0 0 512 512;" xml:space="preserve">
<style type="text/css">
	.st0{fill:#FDD700;}
	.st1{fill:#010101;}
	.st2{fill:#818285;}
</style>
<g id="XMLID_1_">
	<path class="st0" d="M0,166.24h125.01v179.06H0V166.24z M106.95,184.3H18.06v142.93h88.89V184.3L106.95,184.3z"/>
	<path id="XMLID_33_" class="st1" d="M191.29,216.3h-6.12c-8.11-11.52-16.21-22.76-24.18-35.7l0,0v35.7h-6.83v-49.78h6.12
		c8.11,11.38,16.21,22.76,24.18,35.41h0.14v-35.41h6.83v49.78H191.29z"/>
	<path class="st1" d="M207.5,196.67c1.99-6.54,3.98-12.66,5.69-20.34h0.14c1.99,7.68,3.7,13.8,5.69,20.34H207.5z M210.77,166.52
		l-17.21,49.78h7.4l4.41-13.51h15.08l3.84,13.51h9.53l-15.79-49.78H210.77z"/>
	<polygon id="XMLID_30_" class="st1" points="241.78,216.3 241.78,173.21 228.69,173.21 228.69,166.52 263.4,166.52 263.4,173.21 
		250.31,173.21 250.31,216.3 	"/>
	<rect id="XMLID_3_" x="266.1" y="166.52" class="st1" width="8.53" height="49.78"/>
	<path class="st1" d="M300.94,210.18c-8.96,0-11.95-9.81-11.95-19.34c0-9.24,3.56-17.92,11.95-17.92c8.53,0,11.95,8.82,11.95,17.92
		C313.03,200.23,309.9,210.18,300.94,210.18 M300.94,217.29c12.94,0,21.05-11.66,21.05-26.45c0-13.94-8.96-25.03-21.05-25.03
		c-12.23,0-21.05,11.09-21.05,25.03C279.89,205.63,288,217.29,300.94,217.29"/>
	<path id="XMLID_27_" class="st1" d="M364.52,216.3h-6.12c-8.11-11.52-16.21-22.76-24.18-35.7l0,0v35.7h-6.83v-49.78h6.26
		c8.11,11.38,16.21,22.76,24.04,35.41h0.14v-35.41h6.83v49.78H364.52z"/>
	<path class="st1" d="M380.73,196.67c1.99-6.54,3.98-12.66,5.69-20.34h0.14c1.99,7.68,3.84,13.8,5.69,20.34H380.73z M384,166.52
		l-17.21,49.78h7.4l4.41-13.51h15.08l3.84,13.51h9.53l-15.79-49.78H384z"/>
	<polygon id="XMLID_24_" class="st1" points="409.46,166.52 417.99,166.52 417.99,209.76 434.77,209.76 434.77,216.3 409.46,216.3 	
		"/>
	<path id="XMLID_23_" class="st1" d="M186.03,257.97v20.62c-4.55,1.85-9.39,3.13-14.22,3.13c-14.65,0-23.89-11.38-23.89-26.03
		c0-13.65,9.24-25.46,24.18-25.46c4.55,0,9.24,1.71,12.09,3.84l-2.7,5.97c-2.28-1.42-5.83-2.7-9.1-2.7
		c-9.1,0-15.36,7.25-15.36,18.49c0,11.8,7.11,18.77,14.51,18.77c2.28,0,4.12-0.28,5.97-1.28v-15.36L186.03,257.97L186.03,257.97z"/>
	<polygon id="XMLID_22_" class="st1" points="216.6,237.63 202.24,237.63 202.24,251.29 216.18,251.29 216.18,257.97 202.24,257.97 
		202.24,274.04 219.16,274.04 219.16,280.73 193.85,280.73 193.85,230.95 216.6,230.95 	"/>
	<path class="st1" d="M242.92,274.47c-8.82,0-12.09-9.81-12.09-19.34c0-9.1,3.56-17.92,12.09-17.92c8.53,0,12.09,8.82,12.09,17.92
		C254.86,264.65,251.73,274.47,242.92,274.47 M242.92,281.58c13.08,0,21.05-11.66,21.05-26.45c0-13.94-8.96-25.03-21.05-25.03
		c-12.23,0-21.05,11.09-21.05,25.03C221.72,270.06,229.83,281.58,242.92,281.58"/>
	<path id="XMLID_19_" class="st1" d="M304.92,257.97v20.62c-4.55,1.85-9.24,3.13-14.08,3.13c-14.65,0-23.89-11.38-23.89-26.03
		c0-13.65,9.24-25.46,24.18-25.46c4.69,0,9.24,1.71,12.09,3.84l-2.7,5.97c-2.28-1.42-5.83-2.7-9.1-2.7
		c-9.1,0-15.36,7.25-15.36,18.49c0,11.8,7.11,18.77,14.51,18.77c2.28,0,4.27-0.28,5.97-1.28v-15.36L304.92,257.97L304.92,257.97z"/>
	<path class="st1" d="M321.28,237.63h3.84c4.98,0,7.82,2.84,7.82,8.11c0,6.68-3.98,9.67-8.11,9.81c-0.85,0.14-2.84,0.14-3.56,0.28
		V237.63z M342.9,280.73l-9.96-20.62c5.4-2.99,8.53-8.82,8.53-14.79c0-9.67-5.83-14.36-15.5-14.36h-13.23v49.78h8.53v-18.77h3.7
		h0.14l8.11,18.77H342.9z"/>
	<path class="st1" d="M356.98,261.1c1.99-6.54,3.98-12.66,5.83-20.34h0.14c1.99,7.68,3.84,13.8,5.69,20.34H356.98z M360.25,230.95
		l-17.21,49.78h7.4l4.41-13.65h14.93l3.84,13.65h9.53l-15.93-49.78H360.25z"/>
	<path id="XMLID_14_" class="st1" d="M394.52,280.73h-8.53v-49.78h13.37c9.53,0,15.5,4.69,15.5,14.36c0,8.39-6.26,16.64-16.36,16.64
		h-3.98v-6.12c0.43-0.14,2.84-0.14,3.7-0.28c4.12-0.28,8.11-3.27,8.11-9.81c0-5.12-2.84-8.11-7.82-8.11h-3.84v43.09H394.52z"/>
	<polygon id="XMLID_13_" class="st1" points="454.26,280.73 445.72,280.73 445.72,256.83 427.95,256.83 427.95,280.73 
		419.56,280.73 419.56,230.95 427.95,230.95 427.95,250.15 445.72,250.15 445.72,231.09 454.26,231.09 	"/>
	<rect id="XMLID_2_" x="462.36" y="230.95" class="st1" width="8.53" height="49.78"/>
	<path id="XMLID_12_" class="st1" d="M509.3,240.05c-2.13-1.28-5.4-2.84-8.82-2.84c-8.68,0-15.08,7.25-15.08,18.49
		c0,11.8,6.97,18.77,15.22,18.77c3.27,0,6.4-1,8.53-2.42l2.42,6.26c-2.56,1.71-7.11,3.41-11.24,3.41
		c-14.65,0-23.89-11.38-23.89-26.03c0-13.65,9.1-25.46,24.04-25.46c4.41,0,8.53,1.85,11.52,3.84L509.3,240.05z"/>
	<path id="XMLID_11_" class="st2" d="M180.48,304.76c-1.99-1.28-5.4-2.84-8.68-2.84c-8.68,0-14.93,7.11-14.93,18.49
		c0,11.8,6.97,18.77,15.22,18.77c3.27,0,6.26-1.14,8.53-2.42l2.28,6.12c-2.56,1.71-7.11,3.41-11.24,3.41
		c-14.65,0-23.89-11.38-23.89-26.03c0-13.51,9.1-25.46,24.04-25.46c4.41,0,8.53,1.85,11.38,3.84L180.48,304.76z"/>
	<polygon id="XMLID_10_" class="st2" points="220.44,345.29 211.91,345.29 211.91,321.4 194.28,321.4 194.28,345.29 185.88,345.29 
		185.88,295.66 194.28,295.66 194.28,314.72 211.91,314.72 211.91,295.8 220.44,295.8 	"/>
	<path class="st2" d="M237.37,325.67c1.99-6.54,3.98-12.52,5.69-20.2h0.14c1.99,7.68,3.84,13.65,5.69,20.2H237.37z M240.64,295.66
		l-17.21,49.64h7.4l4.27-13.51h14.93l3.84,13.51h9.53l-15.79-49.64H240.64z"/>
	<path id="XMLID_7_" class="st2" d="M303.79,345.29h-6.12c-8.11-11.38-16.07-22.76-24.18-35.56h-0.14v35.56h-6.83v-49.64h6.12
		c8.11,11.38,16.07,22.61,24.04,35.41h0.14v-35.41h6.83v49.64H303.79z"/>
	<path id="XMLID_6_" class="st2" d="M349.01,345.29h-6.26c-8.11-11.38-16.07-22.76-24.18-35.56l0,0v35.56h-6.83v-49.64h6.12
		c8.11,11.38,16.07,22.61,24.04,35.41h0.14v-35.41h6.83L349.01,345.29L349.01,345.29z"/>
	<polygon id="XMLID_5_" class="st2" points="378.31,302.34 364.23,302.34 364.23,316 378.03,316 378.03,322.68 364.23,322.68 
		364.23,338.75 380.87,338.75 380.87,345.29 355.7,345.29 355.7,295.66 378.31,295.66 	"/>
	<polygon id="XMLID_4_" class="st2" points="385.71,295.66 394.1,295.66 394.1,338.75 410.88,338.75 410.88,345.29 385.71,345.29 	
		"/>
</g>
</svg>
