<?xml version="1.0" encoding="utf-8"?>
<!-- Generator: Adobe Illustrator 26.5.0, SVG Export Plug-In . SVG Version: 6.00 Build 0)  -->
<svg version="1.1" id="Layer_1" xmlns="http://www.w3.org/2000/svg" xmlns:xlink="http://www.w3.org/1999/xlink" x="0px" y="0px"
	 viewBox="0 0 512 512" style="enable-background:new 0 0 512 512;" xml:space="preserve">
<style type="text/css">
	.st0{fill:#E21B4D;}
	.st1{fill:#FFD300;}
</style>
<g id="XMLID_1_">
	<path id="XMLID_48_" class="st0" d="M366.43,156.23H344.7v42.62c0,13.84,14.81,25.74,33.07,25.74c18.27,0,34.32-12.04,34.32-25.74
		v-42.62h-21.73v38.33c0,6.37-5.4,11.49-12.04,11.49c-6.78,0-12.18-5.12-12.18-11.62v-38.19H366.43z"/>
	<path id="XMLID_47_" class="st0" d="M22.56,132.84v88.29H0V114.58h40.54c17.57,0,32.1,14.25,32.1,31.69
		c0,14.81-10.38,27.26-24.35,30.44l31.27,44.42H52.72l-22.56-34.87V160.8h5.26c8.3,0,15.08-6.23,15.08-13.84
		s-6.37-14.11-14.67-14.11H22.56z"/>
	<path class="st0" d="M229.43,221.13V109.46h-21.31v52.72c-5.67-5.54-12.73-8.58-21.03-8.58c-17.57,0-31.83,15.5-31.83,34.73
		c0,19.1,14.25,34.73,31.83,34.73c8.3,0,16.19-3.18,21.03-9.13v7.33h21.31V221.13z M193.31,204.94c-8.58,0-15.64-7.61-15.64-17.16
		s7.06-17.16,15.64-17.16s15.64,7.61,15.64,17.16C208.67,197.19,201.76,204.94,193.31,204.94"/>
	<path class="st0" d="M318.82,163.29c5.81-5.4,9.41-12.59,9.41-20.62c0-7.33-2.77-13.84-7.61-19.1c-5.12-5.54-13.98-8.86-26.15-8.86
		h-36.26v106.55h46.91c17.85-0.28,32.52-13.84,32.52-30.58C337.5,178.51,333.22,169.93,318.82,163.29 M300.83,202.72h-20.34v-68.91
		h14.25c6.23,0,11.49,4.7,11.49,11.07c0,6.37-5.26,11.49-11.49,11.49h-7.47v19.23h13.84c7.47,0,13.15,6.23,13.15,13.7
		C313.98,196.77,309,202.31,300.83,202.72"/>
	<path class="st0" d="M98.25,180.45c0-7.2,5.81-12.87,12.87-12.87c7.2,0,12.87,5.81,12.87,12.87H98.25z M145.16,192.48
		c0.14-1.52,0.28-2.91,0.28-4.43c0.28-22.97-14.81-35.56-34.18-35.56s-35.15,15.91-35.15,35.56s15.78,35.56,35.15,35.56
		c14.81,0,26.43-6.78,32.38-17.3l-17.3-7.89c-2.21,4.7-7.33,8.03-13.28,8.03c-7.89,0-14.53-6.09-14.53-13.98
		C98.94,192.48,145.16,192.48,145.16,192.48"/>
	<rect id="XMLID_40_" x="422.19" y="109.6" class="st0" width="21.31" height="111.67"/>
	<rect id="XMLID_39_" x="458.45" y="109.6" class="st0" width="21.31" height="111.67"/>
	<path id="XMLID_38_" class="st1" d="M190.96,295.02c0-28.78,23.25-52.17,52.17-52.17c28.78,0,52.17,23.25,52.17,52.17
		c0,28.92-23.25,52.17-52.17,52.17C214.21,347.05,190.96,323.67,190.96,295.02"/>
	<path class="st1" d="M201.2,264.03c0.83,0.42,1.66,0.83,2.49,1.38c3.87,2.63,6.5,4.98,12.45,9.96c1.8,1.8,3.74,4.57,5.26,6.37
		c3.18,4.01,5.54,6.92,5.95,10.24c0.97,6.78,1.94,10.52,4.43,17.44c0.28,0.69,1.38,1.66,2.08,2.49c1.66,2.08,2.35,5.26,5.26,7.06
		c1.66,0.97,1.94,1.11,2.49,1.52c0.83,0.69-0.55,3.04-4.7,2.49c2.21,1.11,1.94,3.46-1.25,3.6c-6.09,0.28-9.82-3.18-10.66-4.15
		c-0.42-0.42-1.66,1.25-3.74,2.08c-2.21,1.11-5.12,0-7.47,0.42c-2.21,0.42-4.98,1.8-7.33,1.94c-4.01,0.14-4.57-2.63-4.57-5.12
		c0-0.55,0-0.97,0-1.11c-0.42,1.52-1.94,4.01-1.94,4.01c-0.55,1.25-1.38,2.63-2.77,3.18l-4.29,0.55c-3.32,1.52-6.78,2.49-10.24,3.74
		c-2.08,0.42-4.29,0-5.81-1.25c-1.25-0.97-1.94-2.21-2.49-3.32c-0.69-0.28-1.66,0-2.49-0.28c-0.69-0.14-1.11-0.69-1.52-1.11
		l-2.91-5.12c-0.28-0.69-0.28-1.66,0-2.35c0.55-1.11,1.8-1.66,2.91-1.66c2.21-0.14,4.57-0.83,6.78,0c0.97-1.11,2.49-0.97,3.74-1.25
		c-0.55-0.83-1.38-1.25-2.08-1.94c-3.87,0.97-8.16,0.28-12.04-0.42c-3.46-0.83-6.5,1.25-9.96,0.69l-1.11,2.35
		c-1.66,1.8-1.8,4.7-4.15,5.95c-1.8,0.42-3.04,1.66-4.57,2.49c-2.63,1.52-6.37,0.83-9.27,0.28c-1.25-0.14-2.08,0-3.04,0.42
		c-0.97,0.69-2.08,1.8-3.04,2.49c-1.8,0.69-3.18,2.21-5.12,2.35c-1.11,0-2.21-0.69-3.18-0.42c-1.38,1.52-2.08,3.87-4.15,4.57
		c-2.21,0.69-4.84,0.14-7.06-0.42c-0.69,0.28-1.11,0.83-1.94,0.69c-1.52-0.42-2.91-0.83-4.29-1.66c-0.55-0.55-0.69-1.25-0.83-1.8
		c0-0.97,0.83-1.8,1.25-2.49c0.14-0.97,0.14-2.35,0.55-3.18c0.69-1.52,2.21-2.49,3.6-3.04c0.14-1.11,0.83-2.08,1.8-2.49
		c1.8-0.97,3.6-3.04,5.95-1.94l2.49,2.08c2.21-0.97,1.66-3.04,2.63-4.84c0.55-1.25,1.25-2.49,2.49-2.49c0.97-0.14,2.08,0.14,2.91,0
		c1.38-0.42,2.77-0.97,3.74-2.08l-0.14-0.83c-1.38-2.49-1.8-5.67-1.94-8.72c-2.49,0.28-4.98,0.69-7.47,0.14
		c-3.74-0.55-7.47-3.46-8.86-7.33c-1.66-3.6-0.97-8.72,1.66-11.9c2.08-2.49,4.29-4.57,6.78-6.5c-0.83-0.28-1.8-0.14-2.49-0.42
		c-3.46-0.55-7.06-3.6-7.75-7.2c-0.55-2.35,0-4.43,1.11-6.37c0.42-0.42,0.83-0.83,1.52-0.55c1.8,0.69,2.35,1.66,3.87,2.49l0.97,0.55
		c4.43,1.52,10.38,1.52,12.18,7.06c1.11,4.29-1.66,7.47-4.7,9.96c-2.49,1.8-4.84,3.87-6.09,6.5c-0.55,1.94-0.28,3.74,1.38,5.12
		c1.66,1.66,4.43,1.66,6.5,0.83c3.74-1.66,7.33-4.01,10.66-6.64c3.18-2.49,7.2-3.32,11.35-3.46c1.94-0.42,3.46-1.25,4.98-2.49
		c2.49-2.49,5.26-4.43,8.44-5.26c1.52-0.28,2.91-0.42,4.43-0.55c1.25-0.55,2.08-2.08,2.91-2.63c4.43-3.87,10.38-3.74,15.08-6.92
		c2.63-2.08,5.67-3.32,9.13-3.18c1.66,0.14,3.04,0.42,4.43,0.97L201.2,264.03L201.2,264.03z M205.63,309.83
		c-2.91,0.14-4.84,0.83-6.92,1.11c0.14,1.94,1.25,3.46,2.63,5.54C202.31,313.29,204.8,312.04,205.63,309.83"/>
	<path class="st1" d="M281.46,310.52c1.38,2.08,2.21,4.01,3.32,6.23c1.25-2.35,2.35-4.43,3.32-5.81
		C288.1,310.8,284.51,311.21,281.46,310.52 M284.23,320.48c-0.14,0.42-0.42,0.55-0.97,0.55c0.42,1.94-0.97,5.4-4.29,5.54
		c-2.35,0.14-6.09-2.21-8.16-2.35c-2.35-0.14-6.5,1.66-8.86-2.08c-3.18,3.87-7.06,4.98-10.24,4.84c-1.94,0-3.87-1.11-1.11-3.46
		c-6.23,2.08-6.23-2.21-5.12-2.91c0.69-0.55,1.52-0.97,3.74-3.18c8.58-8.99,5.4-24.63,14.81-35.01c3.6-4.01,6.64-6.37,13.98-11.62
		c2.49-1.8,5.12-4.29,7.47-6.09l0.14,0.28v-0.14c1.52-1.11,2.77-2.21,4.43-2.49c3.32-0.42,6.5,0.69,8.99,2.49
		c1.38,0.97,2.49,2.08,3.46,3.32c0.83,0.83,2.08,0.83,3.04,1.25c3.04,0.55,5.81,1.8,8.3,3.32c1.8,1.11,3.18,2.91,5.4,3.18
		c2.49,0.42,4.84,1.25,7.2,2.49c2.63,1.8,5.12,3.87,8.3,4.43c6.5,0.69,11.9,4.29,17.02,7.89c2.91,1.8,6.5,3.74,10.1,2.49
		c1.11-0.42,1.94-1.38,2.21-2.35c0.28-2.49-1.25-4.29-2.63-6.09c-3.04-3.6-8.44-6.78-7.75-12.04c0.97-3.87,5.26-6.23,8.58-7.33
		c1.94-0.69,4.15-0.42,5.81-2.08c0.83-0.55,1.25-2.49,2.49-1.8c1.11,0.69,1.25,2.08,1.38,3.18c0.55,3.74-0.28,7.47-3.74,9.69
		c-1.66,1.11-3.32,1.52-5.26,1.94c2.77,2.35,5.67,5.12,7.33,8.3c0.97,1.94,1.52,3.46,1.66,5.67c-0.14,4.01-2.49,7.47-6.09,9.55
		c-2.08,1.11-4.29,1.52-6.78,1.52c-0.97,0-1.8-0.28-2.49-0.28c0.42,1.94,0.42,4.43,0,6.64c-0.14,1.11-0.83,2.35-0.83,3.6
		c0.55,0.69,1.38,0.69,2.08,0.69c1.8,0,3.87-0.14,4.84,1.8c0.83,1.8,1.25,3.74,1.94,5.54c0.28,0.28,0.42,0.97,0.83,0.83
		c1.25-1.11,2.49-2.49,4.15-2.21c1.66,1.11,3.18,2.35,4.84,3.46c0.42,0.42,0.55,0.97,0.69,1.66c1.38,0.55,3.04,1.52,3.46,3.04
		c0.28,1.11,0.14,2.21,0.42,3.04c0.42,1.11,1.52,2.49,0.69,3.74l-0.55,0.42l-5.12,1.66c-0.42,0-0.83-0.28-1.25-0.69
		c-2.63-0.14-5.95,0.69-8.03-1.25c-0.97-0.83-1.66-1.8-2.35-2.77c-1.66,0.83-3.87,1.38-5.54,0.28c-3.32-2.49-6.78-5.12-11.35-4.98
		c-2.08,0.42-4.43,0.97-6.5,0.14c-1.94-1.38-4.01-2.08-5.54-4.01c-2.21-2.35-2.21-4.98-2.91-7.75c-2.91,0.69-6.23,0.28-9.13,0.14
		c-2.49-0.14-4.7,0.28-7.06,0.83c-2.77,0.55-5.95,0.83-8.86,0.69l-1.52,1.11c0.69,0.14,1.38,0.14,1.94,0.69l0.55,0.55
		c2.49,0.28,5.26-0.14,7.47,0.42c0.55,0.14,1.11,0.69,1.38,1.25c0.28,0.69,0.28,1.52-0.14,2.08c-1.25,1.66-1.94,3.46-3.46,4.84
		c-0.42,0.55-1.66-0.14-1.8,0.83c-0.55,2.49-2.77,4.43-5.12,4.98c-0.97,0.14-2.08,0-2.77-0.28c-2.77-0.97-5.67-1.8-8.44-2.49
		c-0.97-0.28-1.8-1.25-2.49-1.8c-1.25,0-2.91,0.42-3.74-0.69c-0.42-0.28-0.83-1.25-0.97-1.66
		C285.34,324.5,284.64,322.28,284.23,320.48"/>
	<path class="st0" d="M199.82,281.05c0.83,2.08,0.83,4.7,0.28,6.92c-0.14,0.14-0.28,0.14-0.42,0c-0.42-1.94-0.83-3.74-1.52-5.67
		c-0.42-1.11-1.8-2.08-1.25-3.18c0.28-0.28,0.83-0.28,1.25-0.14C198.85,279.52,199.26,280.22,199.82,281.05 M221.41,299.87
		c1.52,1.8,2.49,3.6,2.08,5.95c-0.28,0.42-0.14,1.25-0.83,1.38c-0.28,0.14-0.55-0.14-0.55-0.42c-0.14-1.25-0.14-2.49-0.83-3.46
		c-0.83-0.83-1.8-2.49-3.04-2.49c-0.97,0.28-1.66,1.38-2.21,2.08c0,0.14-0.14,0.14-0.28,0c-0.55-1.38,0.55-2.49,0.97-3.46
		c0.83-0.83,0.69-3.04,2.49-2.49C220.3,297.65,220.58,299.04,221.41,299.87 M218.5,315.92c0.14,0.83,0.14,2.08-0.69,2.49
		c-0.83,0.28-1.94,0.42-2.77,0.28c-0.28-0.14-0.55-0.28-0.42-0.55c0.42-1.25,1.66-2.49,2.91-2.77
		C217.95,315.36,218.36,315.36,218.5,315.92 M120.25,266.66c3.18,0.83,6.78,0.83,9.13,3.32c1.38,1.66,1.52,4.43,0.42,6.09
		c-1.94,3.18-5.67,4.84-7.89,7.61c-2.35,1.94-3.04,4.84-2.49,7.75c0.83,2.49,3.32,4.29,5.95,4.43c4.01,0.14,7.06-1.94,10.24-3.74
		c3.18-2.35,6.23-5.26,9.82-6.23c2.49-0.83,5.12-0.42,7.47-1.38c2.49-0.55,4.57-2.63,6.64-4.57c2.35-1.94,4.98-2.91,7.89-2.77
		c2.63,0.42,4.15-2.08,6.09-3.6c3.04-2.77,7.2-3.04,10.79-4.7c2.49-0.83,4.57-2.63,7.06-3.87c2.35-0.97,5.4-1.25,7.61-0.28
		c1.52,0.69,3.04,1.38,4.43,2.49l10.93,9.13c0.14,0.42,0.55,0.69,0.83,0.83c3.04,3.74,6.37,7.47,8.86,11.62
		c0.83,1.52,1.25,2.91,1.66,4.57c0.55,6.23,2.21,11.62,4.15,17.02c0.55,0.83,1.66,1.52,2.21,2.35c1.8,2.49,2.77,5.54,5.67,7.2
		l1.66,0.83c0.14,0.14,0.14,0.42,0,0.55l-0.28,0.28c-3.32,0.55-5.95-1.52-7.61-3.87c-1.11-2.21-2.49-4.43-4.98-5.4
		c-0.14,0-0.28,0.14-0.28,0.14c0.28,0.83,1.11,1.38,1.38,2.08c0.97,1.52,1.8,3.04,2.21,4.7c0.55,1.8,2.49,2.91,3.87,3.87l2.21,1.11
		c0.28,0.14,0.42,0.55,0.14,0.83l-0.28,0.14c-3.6,0.14-6.92-1.11-9.41-3.74c-0.55-0.69-1.38-1.25-2.35-1.25
		c-1.66,1.52-3.18,2.77-5.4,2.91c-2.35-0.42-4.7-0.42-6.78,0.42c-1.94,0.69-3.74,1.52-5.81,1.52c-0.97,0-2.08-0.42-2.49-1.38
		c0-1.25-0.83-2.49-0.14-3.74l1.38-2.08c0-0.28-0.14-0.55-0.42-0.55c-0.55-0.14-1.52,0.83-1.8-0.14c0.14-2.08,2.21-3.32,3.46-4.7
		c0.28-1.66,0.97-3.04,2.21-4.43c0-0.14-0.14-0.42-0.42-0.42c-1.8,0.28-3.46,0.69-5.4,0.69c-1.52,0.83-3.32,1.38-5.12,0.83
		c-0.42-0.28-0.28-0.69-0.14-0.97c1.94-2.49,2.49-5.81,2.08-8.86c-0.14-0.14-0.14-0.42-0.42-0.42c-0.28,0-0.28,0.28-0.42,0.42
		c-0.42,2.91-1.38,5.26-2.91,7.75c-1.25,1.25-3.04,1.25-4.7,1.66c-0.42,0.14-0.83,0.55-0.83,0.97c0,1.11,0.69,1.8,1.11,2.63
		l3.46,6.5c0.14,1.8-0.69,3.46-1.11,5.12c0.14,0.28,0.42,0.14,0.69,0c1.25-1.11,2.08-2.49,2.49-4.15c0.14-0.69-0.14-1.52-0.42-2.08
		l-3.6-7.33c0.28-0.42,0.83-0.42,1.25-0.55c0.83,0,1.66,0.42,2.49,0.69c0.83,2.21,1.8,4.43,3.18,6.37c0.28,1.25,0.69,2.77-0.14,3.74
		c-0.83,1.66-1.66,2.91-2.63,4.43c-0.97,0.97-2.35,0.83-3.6,0.97h-0.42c-3.18,1.8-6.64,2.77-10.1,3.87
		c-1.52,0.69-3.18,0.14-4.43-0.83s-1.8-2.35-2.49-3.46c-0.97-1.25-2.49-0.14-3.46-0.83c-0.97-1.52-1.94-2.91-2.63-4.57
		c0-0.42,0-0.83,0.42-1.11c1.25-0.42,2.49-0.42,3.87-0.55c1.25-0.14,2.49,0.14,3.32,0.97c1.66,1.94,2.35,4.43,4.7,5.67
		c1.94,0.14,3.46-0.42,5.12-1.25c0.97-0.55,2.08-1.38,2.08-2.49c-0.14-2.49-1.8-4.29-3.74-5.67c-2.08-1.11-4.15-2.49-5.67-4.43
		c-0.83-1.11-0.97-2.35-1.38-3.32c-0.14-0.28-0.69-0.28-0.83-0.14c-0.83,0.69-0.14,1.94-0.14,2.63c0.14,0.55,0.42,1.25,0.14,1.66
		c-1.25,0.97-2.77,0.42-4.29,0.55c-2.91-0.14-5.81-1.38-8.86-1.11c-2.91,0.14-7.06,2.21-9.13-0.83c-1.11-2.77-0.83-6.23-0.28-8.99
		c0-0.28-0.28-0.55-0.55-0.55c-0.28-0.14-0.55,0-0.69,0.28c-0.83,2.77-0.97,5.95-1.66,8.86c-1.11,2.49-2.91,5.26-5.54,6.64
		c-2.35,1.25-4.98,1.66-7.75,1.94c-5.12,0.14-9.82,1.11-13.01,5.54c-0.28,0.42-0.69,0.83-0.55,1.38c0.14,0.14,0.55,0.28,0.69,0.14
		c3.46-3.87,7.89-5.54,13.01-5.26c4.84,0,9.69-0.83,12.73-4.98c0.83-0.97,1.38-1.94,2.08-2.91c0.55,0,0.97,0.69,1.38,0.97
		c0.14,1.52-1.11,2.49-1.66,3.6c-0.69,1.38-1.38,2.91-2.63,3.74c-1.66,0.42-2.91,1.52-4.43,2.35c-1.52,0.69-3.32,0.97-5.12,0.55
		c-2.21-0.42-5.12-0.97-7.33,0c-1.11,0.69-2.08,1.94-3.04,2.49c-1.52,0.69-2.77,1.94-4.57,1.8c-1.25-0.28-2.63-1.11-3.74,0
		c-1.38,1.25-1.66,3.32-3.32,4.15c-2.08,1.11-4.15,0-6.23-0.14c0.28-2.08,0.55-3.87,1.94-5.4c0.83-0.14,1.52-0.28,2.21-0.83
		c0.83-0.69,1.38-1.66,1.94-2.49c1.8-1.11,3.74-1.94,4.84-3.74c0.83-1.8,0.83-3.32,2.21-4.98l0.69-0.28l3.6-0.28
		c1.52-0.69,2.77-1.38,4.15-2.49c0.42-0.42,0.55-1.11,0.42-1.8c-0.69-1.8-1.25-2.91-1.66-4.84c-0.42-1.94-0.14-3.74-0.42-5.95
		c-0.14-0.14-0.28-0.55-0.55-0.55c-2.49,0.55-4.7,1.25-7.47,0.83c-3.6-0.42-7.47-2.77-8.72-6.5c-1.25-3.04-0.97-7.47,1.38-10.1
		c2.21-2.63,4.84-4.7,7.47-7.06c0.42-0.28,0.42-0.83,0.55-1.25c0-0.55-0.55-0.97-0.97-1.25c-1.66-0.42-3.46,0.14-5.12-0.55
		c-2.77-0.97-4.98-3.6-5.4-6.64c-0.14-1.38,0.14-2.49,0.83-3.46C116.65,264.58,118.18,266.1,120.25,266.66 M112.22,326.85v0.42
		c-0.69,1.66-1.11,3.46-1.66,5.4c-1.25-0.14-2.35-0.55-3.18-0.97c-0.28-0.28,0-0.55,0-0.83c1.25-1.11,0.83-2.49,1.11-3.87
		c0.14-0.83,0.97-1.52,1.8-1.94C111.12,325.33,111.67,326.3,112.22,326.85 M118.04,321.31c-0.69,1.38-1.66,2.91-3.04,3.74
		c-0.55,0.14-1.25,0.14-1.8-0.14c-0.28-0.28-0.83-0.55-0.83-1.11c0.14-0.55-0.14-1.25,0.42-1.52c1.11-0.69,2.21-1.38,3.18-2.35
		c0.28-0.14,0.83-0.28,0.97,0C117.62,320.48,117.9,320.76,118.04,321.31 M185.57,320.76c0.14,0.55,0.97,1.25,0.42,1.8
		c-1.11,0.83-2.35,1.38-3.74,1.25c-1.11-0.83-0.97-2.35-1.94-3.32c-0.28-0.83-1.52-0.83-1.25-1.66l0.42-0.28
		c1.52,0,2.91,0,4.43-0.28C185.43,317.99,185.01,319.79,185.57,320.76"/>
	<path class="st0" d="M270.67,298.76c0.83,1.11,1.52,2.21,2.08,3.46c0.14,0.28,0,0.55-0.14,0.83c-0.14,0.28-0.42,0.55-0.83,0.28
		c-0.97-0.28-0.83-1.8-2.08-1.66c-0.83,0-1.38,0.69-2.08,1.11c-1.25,1.11-2.77,2.21-3.04,3.74c-0.28,0.55-0.14,1.52-0.69,1.8
		c-0.28,0.14-0.69-0.14-0.69-0.42c-0.14-2.21,0.55-4.15,2.08-5.67c1.52-1.25,2.49-2.91,3.74-4.43
		C269.84,297.65,270.39,298.21,270.67,298.76 M271.22,316.61c0.28,0.55,0.83,1.25,0.42,1.94c-0.55,0.42-1.52,0.14-2.21,0.14
		c-0.83-0.42-1.11-1.52-1.11-2.49c0-0.28,0-0.42,0.28-0.69C269.56,315.64,270.53,315.92,271.22,316.61 M291.42,275.51
		c0.42,0.55,0,1.11-0.28,1.52c-1.94,1.8-4.15,3.6-5.54,5.81c-0.55,0.69-0.97,1.52-1.25,2.35c0,0.14-0.14,0.14-0.28,0.14
		c-0.42-1.11,0.14-2.35,0.42-3.32c0.97-2.49,3.04-4.98,5.4-6.78C290.18,274.96,291.15,274.82,291.42,275.51 M299.04,266.79
		c1.52,0.97,2.08,2.91,3.74,3.32c2.91,0.69,5.95,1.38,8.58,2.63c1.94,0.97,3.6,2.35,5.4,3.74c1.66,0.83,3.6,0.83,5.4,1.38
		c2.49,0.69,4.57,2.49,6.92,4.01c2.91,2.35,7.2,2.08,10.52,3.46c5.4,1.8,9.69,5.95,14.67,8.3c2.49,1.38,6.5,1.94,8.99,0.42
		c1.8-1.25,2.77-2.77,2.49-5.12c-0.97-5.54-7.06-8.3-9.82-12.87c-0.55-1.11-0.97-2.49-0.69-3.74c1.11-2.63,3.87-4.15,6.37-5.12
		c1.94-0.97,4.29-0.69,6.09-1.8c0.69-0.42,1.25-0.97,1.66-1.38c0.42,0,0.42,0.42,0.55,0.69c0.55,3.18,0,6.64-2.77,8.44
		c-1.11,0.83-2.49,1.11-3.6,1.38c-1.11,0.42-3.18-0.42-3.04,1.52c0.28,0.97,1.11,1.52,1.8,2.21c3.74,3.04,7.33,7.2,7.61,12.04
		c0.14,3.74-2.49,7.06-5.67,8.58c-2.49,0.97-5.4,1.38-7.89,0.69c-0.69-0.14-1.8-0.83-2.35,0.14c-0.14,1.11,0.55,1.94,0.55,2.77
		c0.28,1.8,0.28,4.01-0.28,5.81c-0.28,1.38-1.66,2.91-0.42,4.29c1.25,1.94,3.6,1.38,5.67,1.66c1.11,0.14,1.52,1.38,1.8,2.21
		c0.42,1.11,0.42,2.35,0.83,3.04c0,2.08,2.35,2.77,3.32,4.15c1.38,1.52,2.49,4.01,4.84,3.87c0.83,1.66,1.25,3.04,1.52,4.98
		l-0.28,0.28c-1.94,0-4.43,0.55-5.81-0.83c-1.66-1.11-2.21-4.01-4.57-3.18c-1.11,0.83-2.49,1.11-3.74,0.55
		c-1.25-0.42-2.08-1.52-3.04-2.21c-3.18-2.49-7.47-3.6-11.76-2.63c-2.49,0.69-4.29-1.11-6.23-2.21c-2.49-1.11-3.18-3.74-3.74-6.09
		l-0.42-2.77c0-0.28,0.28-0.55,0.55-0.69h0.42c1.52,3.32,4.29,7.2,7.89,8.3c3.32,1.38,6.5-0.42,10.1,0.28
		c3.32,0.42,6.09,2.49,8.58,4.57c0.28,0,0.42-0.14,0.55-0.42v-0.28c-3.04-3.87-7.47-5.95-12.45-5.54
		c-4.15,0.83-8.16-0.55-10.66-4.01c-1.38-2.08-2.35-4.15-2.63-6.5c-0.42-2.63-0.97-5.67-1.94-8.03c-0.28-0.14-0.55-0.42-0.83-0.28
		l-0.28,0.42c0.42,2.49,1.25,5.67,0.28,8.3c-0.69,2.21-2.77,2.91-4.84,3.04c-2.08,0.14-3.87-0.28-6.09-0.28
		c-4.84-0.14-9.13,1.8-14.11,1.38c0.42-1.25,1.25-2.49,0.83-3.74c-0.14-0.28-0.55-0.28-0.83-0.28c-0.97,0.55-0.83,1.8-1.38,2.49
		c-1.11,1.8-3.04,3.32-5.12,3.74c-1.52,1.11-2.77,2.49-4.01,3.87c-0.42,0.42-0.42,1.25-0.28,1.8c0.97,2.49,3.74,2.63,5.95,3.32
		c1.11,0.14,2.08-0.28,2.49-1.25c0.97-1.52,1.11-3.87,3.18-4.15h4.7c0.42,0.14,0.69,0.42,0.97,0.83l-0.14,0.69
		c-1.11,1.25-1.52,2.91-2.77,3.74c-0.83,0.28-1.8,0-2.35,0.69c-0.28,1.66-0.69,3.32-2.35,4.15c-1.25,1.11-2.91,0.55-4.29,0.14
		c-2.49-0.97-5.12-1.52-7.61-2.35c-1.11-0.28-1.52-1.66-2.63-1.94c-1.11-0.28-2.35,0.55-3.18-0.42c-0.55-1.25-0.83-2.08-1.11-3.32
		c-0.42-0.83-0.69-1.8-0.83-2.63c-0.14-0.83,0-1.38,0.28-2.08l3.46-6.37c0.28-0.42,0.55-0.83,0.97-0.97
		c0.83,0.14,1.8,0.55,2.49,0.97l-0.14,0.42l-3.6,5.54c-0.83,1.8,0,3.74,0.83,5.26c0.14,0.14,0.28,0.42,0.42,0.28
		c-0.14-1.11-0.28-2.21,0-3.32c0.28-1.11,0.97-2.08,1.52-2.91l2.77-4.15c0.28-0.69,0.28-1.8-0.28-2.49
		c-1.25-1.25-2.91-1.66-4.01-3.18c-2.35-3.04-2.49-6.78-2.77-10.66c0-0.28-0.28-0.69-0.69-0.83c-0.28-0.14-0.55,0.28-0.69,0.42
		c-0.69,2.49-0.28,5.67,0.42,7.89c0.42,1.8,1.25,3.46,2.08,5.12c0.14,0.28-0.14,0.69-0.42,0.83c-1.94,0.14-3.74,0-5.54-0.28
		c-2.49-0.42-4.15-2.35-6.23-3.74c-0.28-0.14-0.42,0.14-0.55,0.28c0.55,2.63,3.46,4.29,4.43,6.78c0.55,2.08,2.49,3.46,2.91,5.67
		c0,0.28-0.28,0.69-0.55,0.83c-0.69,0.14-1.38-0.28-2.08,0.14c-0.14,1.25,0.69,2.49,0.14,3.46c-0.69,1.11-1.66,2.35-2.77,2.35
		c-2.49-0.83-4.84-1.94-7.33-2.49c-1.8-0.14-3.46,0.14-5.12,0.28c-1.66-0.28-2.63-1.8-3.87-2.49c-0.42-0.14-0.83-0.14-1.11,0.14
		c-2.63,2.63-5.67,5.67-9.69,5.54c-0.28,0-0.42-0.28-0.42-0.55v-0.28c1.8-1.66,3.87-3.18,4.7-5.54c0.55-1.94,2.21-3.18,2.77-4.98
		c0.14-0.28-0.14-0.42-0.42-0.55l-0.42,0.28c-2.08,2.08-3.46,4.29-4.98,6.5c-1.52,1.52-3.6,2.49-5.95,1.94
		c-0.28-0.14-0.28-0.55-0.14-0.83c8.3-5.12,9.27-14.25,11.62-22.56c1.66-5.54,2.77-11.21,7.2-15.64c6.5-7.2,14.53-11.35,21.73-17.57
		c1.11-0.97,2.21-1.94,3.46-1.94C293.92,263.47,296.68,264.86,299.04,266.79 M375.97,326.3c0.69,0.97,0.42,2.49,0.69,3.46
		c0.14,0.83,1.25,1.52,0.69,2.35l-2.91,0.97c-0.55,0-0.28-0.69-0.55-0.97c-0.28-1.8-0.69-2.91-1.25-4.57
		c-0.14-0.97,0.83-1.66,1.52-2.21C374.73,325.19,375.28,326.02,375.97,326.3 M369.06,320.35c1.11,0.97,2.49,1.66,3.32,2.77
		c0.14,0.55-0.28,1.11-0.55,1.52c-0.42,0.42-0.97,0.69-1.66,0.69s-1.25-0.42-1.66-0.97c-0.69-1.11-1.66-2.08-1.94-3.04
		C367.26,320.62,368.22,319.52,369.06,320.35 M304.16,319.24c-0.14,1.38-0.55,2.49-1.11,3.74c-0.42,0.83-1.66,0.55-2.49,0.42
		c-0.83-0.28-2.21-0.42-2.35-1.66c-0.14-1.11,0.42-2.21,0.97-2.91c1.25-0.14,2.63,0.14,3.87-0.14
		C303.74,318.69,304.16,318.82,304.16,319.24"/>
	<polygon id="XMLID_19_" class="st0" points="26.98,403.1 45.66,403.1 45.66,399.22 31.27,399.22 31.27,386.08 45.11,386.08 
		45.11,382.06 31.27,382.06 31.27,372.38 45.66,372.38 45.66,368.5 26.98,368.5 	"/>
	<polygon id="XMLID_18_" class="st0" points="63.93,403.1 68.22,403.1 68.22,377.22 94.37,404.62 94.37,368.5 90.08,368.5 
		90.08,394.1 63.93,366.7 	"/>
	<polygon id="XMLID_17_" class="st0" points="112.92,403.1 131.6,403.1 131.6,399.22 117.34,399.22 117.34,386.08 131.18,386.08 
		131.18,382.06 117.34,382.06 117.34,372.38 131.6,372.38 131.6,368.5 112.92,368.5 	"/>
	<path class="st0" d="M159.83,388.01c4.98-0.55,8.3-4.7,8.3-9.69c0-3.32-1.66-6.64-4.57-8.3c-2.63-1.66-6.09-1.66-9.13-1.66h-5.26
		v34.73h4.29v-14.67h1.8l10.24,14.67h5.26L159.83,388.01z M153.46,372.24h1.25c4.29,0,9.41,0.83,9.41,6.23
		c0,5.54-4.84,6.37-9.13,6.37h-1.38L153.46,372.24L153.46,372.24z"/>
	<path id="XMLID_14_" class="st0" d="M201.89,385.66v3.87h8.99c-0.14,5.67-5.95,10.24-11.35,10.24c-7.47,0-13.42-6.92-13.42-14.11
		c0-7.75,6.09-14.11,13.84-14.11c4.29,0,8.44,2.35,10.93,5.67l3.04-2.91c-3.32-4.29-8.72-6.78-14.11-6.78
		c-9.96,0-17.99,8.16-17.99,18.13c0,9.55,7.75,17.99,17.57,17.99c9.69,0,16.47-7.33,16.47-16.88v-1.38L201.89,385.66L201.89,385.66z
		"/>
	<polygon id="XMLID_13_" class="st0" points="239.39,388.01 239.39,403.1 243.68,403.1 243.68,388.01 255.03,368.5 250.05,368.5 
		241.61,383.31 233.03,368.5 228.05,368.5 	"/>
	<path class="st0" d="M284.78,403.1h7.06c10.93,0,19.65-5.67,19.65-17.57c0-11.62-8.86-17.3-19.51-17.3h-7.2V403.1z M289.07,372.38
		h1.52c8.86,0,16.47,3.18,16.47,13.42c0,10.1-7.61,13.28-16.47,13.28h-1.52V372.38z"/>
	<path class="st0" d="M338.61,388.01c4.98-0.55,8.3-4.7,8.3-9.69c0-3.32-1.66-6.64-4.57-8.3c-2.63-1.66-6.09-1.66-9.13-1.66h-5.26
		v34.73h4.29v-14.67h1.8l10.24,14.67h5.26L338.61,388.01z M332.25,372.24h1.25c4.29,0,9.41,0.83,9.41,6.23
		c0,5.54-4.84,6.37-9.13,6.37h-1.38L332.25,372.24L332.25,372.24z"/>
	<rect id="XMLID_8_" x="363.1" y="368.5" class="st0" width="4.29" height="34.73"/>
	<polygon id="XMLID_7_" class="st0" points="384.69,403.1 388.98,403.1 388.98,377.22 415,404.62 415,368.5 410.71,368.5 
		410.71,394.1 384.69,366.7 	"/>
	<polygon id="XMLID_6_" class="st0" points="436.86,383.45 436.86,368.5 432.57,368.5 432.57,403.1 436.86,403.1 436.86,388.7 
		438.66,386.91 451.67,403.1 457.48,403.1 441.57,384 457.2,368.5 451.53,368.5 	"/>
	<path class="st0" d="M501.9,108.9c2.49,0,4.43,0.83,6.09,2.49c1.66,1.66,2.49,3.74,2.49,6.09c0,2.49-0.83,4.43-2.49,6.09
		c-1.66,1.8-3.74,2.49-6.09,2.49c-2.49,0-4.43-0.83-6.23-2.49c-1.66-1.66-2.49-3.74-2.49-6.09c0-2.49,0.83-4.43,2.49-6.09
		C497.47,109.87,499.41,108.9,501.9,108.9 M512,117.48c0-2.63-0.97-5.12-2.91-7.2c-2.08-1.94-4.29-2.91-7.2-2.91
		c-2.77,0-5.12,0.97-7.2,2.91c-2.08,2.08-2.91,4.29-2.91,7.2c0,2.77,0.97,5.12,2.91,7.2c2.08,2.08,4.29,2.91,7.2,2.91
		c2.77,0,5.12-0.97,7.2-2.91C510.89,122.74,512,120.39,512,117.48 M504.53,115.41c0,0.83-0.42,1.52-1.25,1.8
		c-0.42,0.14-1.11,0.28-1.94,0.28h-1.8v-4.01h1.66c1.11,0,1.94,0.14,2.49,0.42C504.39,114.16,504.53,114.58,504.53,115.41
		 M497.89,111.95v11.07h1.94v-4.29h1.52c1.11,0,1.8,0.14,2.21,0.42c0.69,0.42,1.11,1.25,1.11,2.49v0.83v0.28v0.14v0.14h1.94
		l-0.14-0.14c0-0.14-0.14-0.28-0.14-0.55c0-0.28,0-0.55,0-0.83v-0.83c0-0.55-0.28-1.11-0.55-1.8c-0.42-0.55-1.11-0.97-1.94-1.11
		c0.69-0.14,1.25-0.28,1.66-0.55c0.69-0.42,1.11-1.25,1.11-2.21c0-1.38-0.55-2.35-1.8-2.77c-0.69-0.28-1.66-0.42-3.04-0.42h-3.87
		V111.95z"/>
</g>
</svg>
