<?xml version="1.0" encoding="utf-8"?>
<!-- Generator: Adobe Illustrator 27.0.0, SVG Export Plug-In . SVG Version: 6.00 Build 0)  -->
<svg version="1.1" id="Layer_1" xmlns="http://www.w3.org/2000/svg" xmlns:xlink="http://www.w3.org/1999/xlink" x="0px" y="0px"
	 viewBox="0 0 512 512" style="enable-background:new 0 0 512 512;" xml:space="preserve">
<style type="text/css">
	.st0{fill:#9D965D;}
</style>
<g id="XMLID_1_">
	<path id="XMLID_3_" d="M0.7,300.18c1.82,5.05,6.59,8.98,11.92,8.98c5.47,0,11.36-4.35,11.36-11.64c0-12.76-22.02-7.72-22.02-24.41
		c0-9.54,7.72-14.17,15.99-14.17c3.09,0,8.14,1.12,10.8,3.51c0,2.95,0,6.45,0,6.45c-1.82-4.77-5.47-7.72-9.54-7.72
		c-4.63,0-9.12,2.81-9.54,9.54c-0.56,12.34,22.16,8.14,22.16,23.85c0,10.52-10.1,16.83-19.22,16.83c-3.23,0-9.68-1.54-11.92-4.35
		C0.7,303.83,0.7,300.18,0.7,300.18z"/>
	<path id="XMLID_4_" d="M0.7,300.18l-0.56,0.28c0.98,2.67,2.67,5.05,4.91,6.73c2.24,1.68,4.77,2.67,7.57,2.67
		c2.95,0,5.89-1.12,8.14-3.23c2.24-2.1,3.79-5.19,3.79-9.12c0-1.68-0.42-3.09-0.98-4.35c-1.12-2.1-3.09-3.51-5.33-4.63
		c-3.37-1.68-7.29-2.95-10.38-5.05c-1.54-1.12-2.81-2.38-3.79-3.93c-0.98-1.68-1.54-3.65-1.54-6.31c0-4.63,1.82-7.86,4.63-10.1
		c2.81-2.24,6.73-3.37,10.66-3.37c1.54,0,3.51,0.28,5.33,0.84c1.96,0.56,3.79,1.4,4.91,2.52l0.42-0.42h-0.7c0,2.95,0,6.45,0,6.45
		h0.7l0.56-0.28c-0.98-2.52-2.38-4.49-4.21-5.89c-1.68-1.4-3.79-2.24-5.89-2.24c-2.52,0-4.91,0.7-6.73,2.38s-3.09,4.21-3.37,7.72
		l0,0l0,0c0,0.14,0,0.28,0,0.42c0,1.54,0.42,2.95,0.98,4.07c1.12,1.96,3.09,3.37,5.33,4.49c3.37,1.68,7.43,3.09,10.52,5.05
		c1.54,0.98,2.81,2.24,3.79,3.79c0.98,1.54,1.54,3.51,1.54,5.89c0,5.05-2.38,9.12-5.89,11.92s-8.28,4.35-12.62,4.35
		c-1.54,0-3.93-0.42-6.17-1.12c-1.12-0.42-2.24-0.84-3.09-1.26c-0.98-0.56-1.68-1.12-2.1-1.68l-0.56,0.42h0.7c0-1.54,0-3.37,0-4.63
		c0-1.4,0-2.24,0-2.24H0.7l-0.56,0.28L0.7,300.18H0c0,0,0,0.98,0,2.24c0,1.4,0,3.09,0,4.63v0.28l0.14,0.14
		c0.7,0.84,1.54,1.4,2.52,1.96c1.54,0.84,3.37,1.4,5.05,1.82c1.82,0.42,3.51,0.7,4.77,0.7c4.77,0,9.68-1.68,13.47-4.63
		c3.79-2.95,6.45-7.43,6.45-12.91c0-1.96-0.42-3.79-0.98-5.19c-1.12-2.67-3.09-4.49-5.33-5.89c-3.37-2.1-7.43-3.37-10.52-5.05
		c-1.54-0.84-2.95-1.82-3.79-2.95c-0.98-1.12-1.4-2.52-1.4-4.35c0-0.14,0-0.28,0-0.42h-0.7h0.7c0.14-3.23,1.4-5.47,2.95-6.87
		s3.65-2.1,5.89-2.1c1.82,0,3.51,0.7,5.05,1.96c1.54,1.26,2.81,3.09,3.79,5.33l1.26-0.28c0,0,0-3.51,0-6.45v-0.28l-0.14-0.14
		c-1.4-1.26-3.37-2.24-5.47-2.81c-2.1-0.56-4.21-0.84-5.75-0.84c-4.21,0-8.42,1.26-11.5,3.65c-3.09,2.52-5.19,6.17-5.19,11.22
		c0,4.35,1.4,7.29,3.65,9.54c1.68,1.68,3.65,2.81,5.75,3.79c3.09,1.54,6.31,2.67,8.7,4.21c1.26,0.84,2.24,1.68,2.81,2.81
		c0.7,1.12,1.12,2.38,1.12,4.07c0,3.51-1.4,6.17-3.37,8.14c-1.96,1.82-4.63,2.95-7.29,2.95c-2.38,0-4.77-0.84-6.87-2.38
		c-1.96-1.54-3.51-3.65-4.49-6.03L0,300.32h0.7V300.18z"/>
	<rect id="XMLID_5_" x="380.56" y="282.78" width="20.9" height="4.63"/>
	<polygon id="XMLID_6_" points="380.56,282.78 380.56,283.49 400.9,283.49 400.9,286.71 381.26,286.71 381.26,282.78 380.56,282.78 
		380.56,283.49 380.56,282.78 380,282.78 380,288.12 402.17,288.12 402.17,282.22 380,282.22 380,282.78 	"/>
	<path id="XMLID_7_" d="M82.06,283.07c0,0,0,23,0,25.25c-0.28,1.12-2.24,2.1-2.24,2.1c3.37,0,11.08,0,13.33,0c0,0-1.96-1.12-2.1-2.1
		c0-2.67,0-43.63,0-46.29c0.14-1.12,2.1-2.1,2.1-2.1c-2.24,0-9.96,0-13.33,0c0,0,1.96,0.98,2.24,2.1c0,2.24,0,18.52,0,18.52
		c-3.79,0-17.96,0-21.46,0c0,0,0-16.27,0-18.52c0.14-1.12,2.1-2.1,2.1-2.1c-3.37,0-11.08,0-13.33,0c0,0,1.96,1.12,2.1,2.1
		c0,2.67,0,43.63,0,46.29c-0.14,1.12-2.1,2.1-2.1,2.1c2.24,0,9.96,0,13.33,0c0,0-1.96-0.98-2.1-2.1c0-2.24,0-25.25,0-25.25
		C65.65,282.93,76.59,282.93,82.06,283.07z"/>
	<path id="XMLID_8_" d="M82.06,283.07h-0.7c0,0,0,1.4,0,3.65c0,6.59,0,19.92,0,21.6h0.7l-0.7-0.14c0,0.14-0.14,0.28-0.28,0.56
		c-0.28,0.28-0.7,0.56-0.98,0.84c-0.14,0.14-0.28,0.14-0.42,0.28h-0.14l0,0l0,0l-2.38,1.26h2.67c1.68,0,4.49,0,7.01,0
		c2.67,0,5.05,0,6.17,0h2.52l-2.24-1.26l0,0c-0.14,0-0.56-0.28-0.98-0.7c-0.28-0.14-0.42-0.42-0.56-0.56
		c-0.14-0.14-0.28-0.28-0.28-0.42l-0.7,0.14h0.7c0-2.67,0-43.63,0-46.29h-0.7l0.7,0.14c0-0.14,0.14-0.28,0.28-0.42
		c0.28-0.28,0.7-0.56,0.98-0.84c0.14-0.14,0.28-0.14,0.42-0.28l0.14-0.14l0,0l0,0l2.24-1.26H93c-1.12,0-3.65,0-6.17,0
		c-2.67,0-5.33,0-7.01,0h-2.67l2.38,1.26l0,0c0.14,0,0.56,0.28,0.98,0.7c0.28,0.14,0.42,0.42,0.56,0.56
		c0.14,0.14,0.28,0.42,0.28,0.56l0.7-0.14h-0.7c0,2.24,0,18.52,0,18.52h0.7v-0.7c-1.96,0-6.45,0-10.8,0c-4.49,0-8.84,0-10.66,0v0.7
		h0.7c0,0,0-4.07,0-8.42c0-4.35,0-8.98,0-10.1h-0.7l0.7,0.14c0-0.14,0.14-0.28,0.28-0.42c0.28-0.28,0.56-0.56,0.98-0.84
		c0.14-0.14,0.28-0.14,0.42-0.28h0.14l0,0l0,0l2.38-1.26h-2.67c-1.68,0-4.49,0-7.01,0c-2.67,0-5.05,0-6.17,0h-2.52l2.24,1.26l0,0
		c0.14,0,0.56,0.28,0.98,0.7c0.28,0.14,0.42,0.42,0.56,0.56c0.14,0.14,0.28,0.28,0.28,0.42l0.7-0.14h-0.7c0,2.67,0,43.63,0,46.29
		h0.7l-0.7-0.14c0,0.14-0.14,0.28-0.28,0.42c-0.28,0.28-0.7,0.56-0.98,0.84c-0.14,0.14-0.28,0.14-0.42,0.28l-0.14,0.14l0,0l0,0
		l-2.24,1.26h2.52c1.12,0,3.65,0,6.17,0c2.67,0,5.33,0,7.01,0h2.67l-2.38-1.26l0,0c-0.14,0-0.56-0.28-0.98-0.7
		c-0.28-0.14-0.42-0.42-0.56-0.56c-0.14-0.14-0.14-0.28-0.28-0.42l-0.7,0.14h0.7c0-1.12,0-7.43,0-13.47c0-3.09,0-6.03,0-8.14
		c0-2.1,0-3.65,0-3.65h-0.7v0.7c2.52,0,6.59,0,10.66,0s8.14,0,10.8,0L82.06,283.07h-0.7H82.06v-0.7c-2.67,0-6.73,0-10.8,0
		c-4.07,0-8.14,0-10.66,0h-0.7v0.7c0,0,0,1.4,0,3.65c0,6.59,0,19.92,0,21.6l0,0l0,0c0,0.42,0.28,0.84,0.56,1.12
		c0.42,0.42,0.84,0.84,1.26,1.12c0.42,0.28,0.7,0.42,0.7,0.42l0.28-0.56v-0.7c-1.68,0-4.49,0-7.01,0c-2.67,0-5.05,0-6.17,0v0.7
		l0.28,0.56c0,0,0.56-0.28,1.12-0.7c0.28-0.28,0.56-0.42,0.84-0.84c0.28-0.28,0.42-0.7,0.56-1.12l0,0l0,0c0-2.67,0-43.63,0-46.29
		l0,0l0,0c0-0.42-0.28-0.84-0.56-1.12c-0.42-0.42-0.84-0.84-1.26-1.12c-0.42-0.28-0.7-0.42-0.7-0.42l-0.28,0.56v0.7
		c1.12,0,3.65,0,6.17,0c2.67,0,5.33,0,7.01,0v-0.7l-0.28-0.56c0,0-0.56,0.28-1.12,0.7c-0.28,0.28-0.56,0.42-0.84,0.84
		c-0.28,0.28-0.42,0.7-0.56,1.12l0,0l0,0c0,2.24,0,18.52,0,18.52v0.7h0.7c1.82,0,6.17,0,10.66,0c4.49,0,8.98,0,10.8,0h0.7v-0.7
		c0,0,0-4.07,0-8.42s0-8.98,0-10.1v-0.14v-0.14c-0.14-0.42-0.42-0.84-0.56-1.12c-0.42-0.42-0.84-0.84-1.26-1.12
		c-0.42-0.28-0.7-0.42-0.7-0.42l-0.28,0.56v0.7c1.68,0,4.49,0,7.01,0c2.67,0,5.05,0,6.17,0v-0.7l-0.28-0.56c0,0-0.56,0.28-1.12,0.7
		c-0.28,0.28-0.56,0.42-0.84,0.84c-0.28,0.28-0.42,0.7-0.56,1.12l0,0l0,0c0,2.67,0,43.63,0,46.29l0,0l0,0
		c0,0.42,0.28,0.84,0.56,1.12c0.42,0.42,0.84,0.84,1.26,1.12c0.42,0.28,0.7,0.42,0.7,0.42l0.28-0.56v-0.7c-1.12,0-3.65,0-6.17,0
		c-2.67,0-5.33,0-7.01,0v0.7l0.28,0.56c0,0,0.56-0.28,1.12-0.7c0.28-0.28,0.56-0.42,0.84-0.84c0.28-0.28,0.56-0.7,0.56-1.12v-0.14
		v-0.14c0-1.12,0-7.43,0-13.47c0-3.09,0-6.03,0-8.14c0-2.1,0-3.65,0-3.65v-0.7h-0.7L82.06,283.07z"/>
	<path id="XMLID_9_" d="M358.12,281.8c0,0,0-17.53,0-19.78c0.14-1.12,2.1-2.1,2.1-2.1c-3.37,0-11.08,0-13.33,0
		c0,0,1.96,1.12,2.1,2.1c0,2.67,0,43.63,0,46.29c-0.14,1.12-2.1,2.1-2.1,2.1c2.24,0,9.96,0,13.33,0c0,0-1.96-0.98-2.1-2.1
		C358.12,306.07,358.12,281.8,358.12,281.8z"/>
	<path id="XMLID_10_" d="M358.12,281.8h0.7c0,0,0-17.53,0-19.78h-0.7l0.7,0.14c0-0.14,0.14-0.28,0.28-0.42
		c0.28-0.28,0.56-0.56,0.98-0.84c0.14-0.14,0.28-0.14,0.42-0.28h0.14l0,0l0,0l2.38-1.26h-2.67c-1.68,0-4.49,0-7.01,0
		c-2.67,0-5.05,0-6.17,0h-2.52l2.24,1.26l0,0c0.14,0,0.56,0.28,0.98,0.7c0.28,0.14,0.42,0.42,0.56,0.56
		c0.14,0.14,0.28,0.28,0.28,0.42l0.7-0.14h-0.7c0,2.67,0,43.63,0,46.29h0.7l-0.7-0.14c0,0.14-0.14,0.28-0.28,0.42
		c-0.28,0.28-0.7,0.56-0.98,0.84c-0.14,0.14-0.28,0.14-0.42,0.28L346.9,310l0,0l0,0l-2.24,1.26h2.52c1.12,0,3.65,0,6.17,0
		c2.67,0,5.33,0,7.01,0h2.67l-2.38-1.26l0,0c-0.14,0-0.56-0.28-0.98-0.7c-0.28-0.14-0.42-0.42-0.56-0.56
		c-0.14-0.14-0.14-0.28-0.28-0.42l-0.7,0.14h0.7c0-2.24,0-26.51,0-26.51h-0.7h-0.7c0,0,0,1.54,0,3.79c0,6.87,0,21.04,0,22.72l0,0
		l0,0c0,0.42,0.28,0.84,0.56,1.12c0.42,0.42,0.84,0.84,1.26,1.12c0.42,0.28,0.7,0.42,0.7,0.42l0.28-0.56v-0.7c-1.68,0-4.49,0-7.01,0
		c-2.67,0-5.05,0-6.17,0v0.7l0.28,0.56c0,0,0.56-0.28,1.12-0.7c0.28-0.28,0.56-0.42,0.84-0.84c0.28-0.28,0.42-0.7,0.56-1.12l0,0l0,0
		c0-2.67,0-43.63,0-46.29l0,0l0,0c0-0.42-0.28-0.84-0.56-1.12c-0.42-0.42-0.84-0.84-1.26-1.12s-0.7-0.42-0.7-0.42l-0.28,0.56v0.7
		c1.12,0,3.65,0,6.17,0c2.67,0,5.33,0,7.01,0v-0.7l-0.28-0.56c0,0-0.56,0.28-1.12,0.7c-0.28,0.28-0.56,0.42-0.84,0.84
		c-0.28,0.28-0.42,0.7-0.56,1.12l0,0l0,0c0,2.24,0,19.78,0,19.78h0.7V281.8z"/>
	<path id="XMLID_11_" d="M422.22,310.42c0,0,1.96-1.12,2.1-2.1c0-2.67,0-43.63,0-46.29c-0.14-1.12-2.1-2.1-2.1-2.1
		c2.24,0,9.96,0,13.33,0c0,0-1.96,0.98-2.24,2.1c0,2.24,0,19.78,0,19.78s0,24.13,0,26.37h0.14c4.07,0.14,10.52-0.42,14.59-0.42
		c1.12,0,3.23-0.42,3.93-1.26c0,1.12-0.28,2.81-0.84,3.93C450.98,310.42,424.47,310.42,422.22,310.42z"/>
	<path id="XMLID_12_" d="M422.22,310.42l0.28,0.56c0,0,0.56-0.28,1.12-0.7c0.28-0.28,0.56-0.42,0.84-0.84
		c0.28-0.28,0.42-0.7,0.56-1.12l0,0l0,0c0-2.67,0-43.63,0-46.29l0,0l0,0c0-0.42-0.28-0.84-0.56-1.12c-0.42-0.42-0.84-0.84-1.26-1.12
		s-0.7-0.42-0.7-0.42l-0.28,0.56v0.7c1.12,0,3.65,0,6.17,0c2.67,0,5.33,0,7.01,0v-0.7l-0.28-0.56c0,0-0.56,0.28-1.12,0.7
		c-0.28,0.28-0.56,0.42-0.84,0.84c-0.28,0.28-0.56,0.7-0.56,1.12v0.14v0.14c0,2.24,0,19.78,0,19.78s0,24.13,0,26.37v0.56l0.7,0.14
		l0,0l0,0c0.42,0,0.84,0,1.4,0c3.79,0,8.84-0.42,12.48-0.42c0.28,0,0.42,0,0.7,0l0,0h0.14c0.7,0,1.54-0.14,2.24-0.28
		c0.42-0.14,0.84-0.28,1.12-0.42c0.42-0.14,0.7-0.42,0.98-0.7l-0.56-0.42h-0.7c0,0.98-0.28,2.67-0.84,3.65l0.56,0.28v-0.7
		c0,0-0.7,0-1.96,0c-3.79,0-11.92,0-18.38,0c-4.21,0-7.72,0-8.42,0L422.22,310.42l0.28,0.56L422.22,310.42v0.7c0.7,0,4.21,0,8.56,0
		c8.56,0,20.34,0,20.34,0h0.42l0.14-0.42c0.7-1.26,0.84-3.09,0.98-4.21v-1.82l-1.12,1.4c-0.14,0.14-0.28,0.28-0.56,0.42
		c-0.7,0.42-2.1,0.7-2.81,0.56h-0.14l0,0l0,0c-0.28,0-0.42,0-0.7,0c-3.65,0-8.7,0.42-12.48,0.42c-0.42,0-0.98,0-1.4,0v0.7v-0.7
		h-0.14v0.7h0.7c0-2.24,0-26.37,0-26.37s0-17.53,0-19.78h-0.7l0.7,0.14c0-0.14,0.14-0.28,0.28-0.56c0.28-0.28,0.7-0.56,0.98-0.84
		c0.14-0.14,0.28-0.14,0.42-0.28h0.14l0,0l0,0l2.38-1.26h-2.67c-1.68,0-4.49,0-7.01,0c-2.67,0-5.05,0-6.17,0h-2.52l2.24,1.26l0,0
		c0.14,0,0.56,0.28,0.98,0.7c0.28,0.14,0.42,0.42,0.56,0.56c0.14,0.14,0.28,0.28,0.28,0.42l0.7-0.14h-0.7c0,2.67,0,43.63,0,46.29
		h0.7l-0.7-0.14c0,0.14-0.14,0.28-0.28,0.42c-0.28,0.28-0.7,0.56-0.98,0.84c-0.14,0.14-0.28,0.14-0.42,0.28l-0.14,0.14l0,0l0,0
		l-2.24,1.26h2.52L422.22,310.42z"/>
	<path id="XMLID_13_" d="M202.56,293.45c-1.26-1.54-28.34-33.67-28.34-33.67s-7.15,0-9.26,0c0,0,1.82,0.42,3.09,3.09
		c0,0,0,43.2,0,45.31c-0.28,1.12-2.1,2.1-2.1,2.1c3.23,0,4.21,0,6.45,0c0,0-2.1-1.12-2.1-2.1c0-2.67,0-38.58,0-38.58
		s-0.42-2.67,1.54,0c2.38,3.09,35.77,42.64,35.77,42.64s0.14-47.41,0.14-50.22c0-1.12,2.1-2.1,2.1-2.1c-2.24,0-5.61,0-9.12,0
		c0,0,1.96,0.98,2.1,2.1c0,2.24,0,31.42,0,31.42H202.56z"/>
	<path id="XMLID_14_" d="M202.56,293.45l0.56-0.42c-1.26-1.54-28.34-33.67-28.34-33.67l-0.14-0.28h-0.28c0,0-3.23,0-5.89,0
		c-1.4,0-2.67,0-3.23,0l-0.14,1.26l0.14-0.42l-0.14,0.42l0,0l0.14-0.42l-0.14,0.42l0,0c0.28,0.14,1.68,0.7,2.67,2.67l0.56-0.28h-0.7
		c0,0,0,43.2,0,45.31h0.7l-0.7-0.14c0,0.14-0.14,0.28-0.28,0.56c-0.28,0.28-0.7,0.56-0.98,0.84c-0.14,0.14-0.28,0.14-0.42,0.28
		h-0.14l0,0l0,0l-2.24,1.26h2.52c1.68,0,2.67,0,3.65,0c0.98,0,1.82,0,2.95,0h2.67l-2.38-1.26l0,0c-0.14,0-0.56-0.28-0.98-0.7
		c-0.28-0.14-0.42-0.42-0.56-0.56c-0.14-0.14-0.14-0.28-0.14-0.28c0-1.4,0-10.94,0-20.34c0-4.63,0-9.26,0-12.62
		c0-1.68,0-3.09,0-4.07c0-0.98,0-1.54,0-1.54l0,0l0,0l0,0c0,0,0-0.28,0-0.42v-0.14l0,0l0,0l-0.28-0.14l0.14,0.14l0.14-0.14
		l-0.28-0.14l0.14,0.14l-0.28-0.28v0.42c0.14,0,0.28,0,0.28-0.14l-0.28-0.28v0.42v-0.28l-0.14,0.28h0.14v-0.28l-0.14,0.28v-0.14
		v0.14l0,0v-0.14v0.14l0,0c0,0,0.14,0.14,0.28,0.28c0.14,0.14,0.28,0.42,0.56,0.7l0,0l0,0c0.56,0.84,3.09,3.79,6.59,8
		c10.38,12.34,29.18,34.65,29.18,34.65l1.12,1.4v-1.82c0,0,0.14-47.41,0.14-50.22c0,0,0-0.14,0.14-0.42
		c0.28-0.28,0.56-0.56,0.98-0.84c0.14-0.14,0.28-0.14,0.42-0.28l0.14-0.14l0,0l0,0l2.38-1.26h-2.67c-1.12,0-2.52,0-4.07,0
		c-1.54,0-3.23,0-4.91,0h-2.81l2.52,1.26l0,0c0.14,0,0.56,0.28,0.98,0.7c0.28,0.14,0.42,0.42,0.56,0.56
		c0.14,0.14,0.28,0.28,0.28,0.42l0.7-0.14h-0.7C202.56,264.27,202.56,293.45,202.56,293.45h0.56v-0.7h-0.56V293.45l0.56-0.42
		L202.56,293.45v0.7h0.56h0.7v-0.7c0,0,0-7.29,0-14.87c0-7.57,0-15.43,0-16.55l0,0l0,0c0-0.42-0.28-0.84-0.56-1.12
		c-0.42-0.42-0.84-0.84-1.26-1.12c-0.42-0.28-0.7-0.42-0.7-0.42l-0.28,0.56v0.7c1.68,0,3.37,0,4.91,0c1.54,0,2.95,0,4.07,0v-0.7
		l-0.28-0.56c0,0-0.56,0.28-1.12,0.7c-0.28,0.28-0.56,0.42-0.84,0.84c-0.28,0.28-0.42,0.7-0.42,1.12c0,1.4,0,13.89-0.14,26.09
		c0,12.2-0.14,24.13-0.14,24.13h0.7l0.56-0.42c0,0-0.56-0.56-1.4-1.68c-3.23-3.79-11.22-13.33-18.8-22.3
		c-3.79-4.49-7.43-8.84-10.24-12.2c-2.81-3.37-4.77-5.75-5.33-6.45l-0.56,0.42l0.56-0.42c-0.28-0.42-0.7-0.84-0.84-0.98
		c-0.14-0.14-0.28-0.14-0.42-0.28c-0.14-0.14-0.28-0.14-0.56-0.14s-0.42,0.14-0.56,0.28c-0.28,0.28-0.28,0.42-0.28,0.56
		c0,0.14,0,0.28,0,0.42c0,0.28,0,0.56,0,0.56l0.7-0.14h-0.7c0,0,0,35.91,0,38.58c0,0.56,0.28,0.84,0.42,1.12
		c0.42,0.42,0.84,0.84,1.26,1.12c0.42,0.28,0.7,0.42,0.7,0.42l0.28-0.56v-0.7c-1.12,0-1.96,0-2.81,0c-0.84,0-1.96,0-3.65,0v0.7
		l0.28,0.56c0,0,0.56-0.28,0.98-0.7c0.28-0.28,0.56-0.42,0.84-0.84c0.28-0.28,0.42-0.7,0.56-1.12v-0.14v-0.14
		c0-1.12,0-12.48,0-23.57c0-5.47,0-10.94,0-15.01c0-2.1,0-3.79,0-4.91s0-1.82,0-1.82v-0.14v-0.14c-0.7-1.4-1.54-2.24-2.24-2.81
		s-1.26-0.7-1.26-0.7l-0.14,0.7v0.7c0.7,0,1.96,0,3.23,0c1.4,0,2.81,0,3.93,0s1.96,0,1.96,0v-0.7l-0.56,0.42c0,0,0.42,0.56,1.12,1.4
		c5.19,6.17,25.95,30.86,27.07,32.26l0.14,0.28h0.28v-0.28H202.56z"/>
	<path id="XMLID_17_" d="M130.17,258.24c0,0,19.08,48.25,20.06,49.8c0.98,1.68,2.67,2.38,2.67,2.38c-1.82,0-11.22,0-13.05,0
		c0-0.14,1.68-0.84,1.12-2.24c-1.26-3.37-4.21-10.1-5.47-13.75h-16.83c-1.26,3.37-4.35,12.2-4.91,13.89
		c-0.42,1.68,0.84,1.96,1.4,2.24c-1.4,0-6.73,0-8.14,0c0,0,1.82-0.7,2.1-2.24c0.28-1.54,19.5-49.94,19.5-49.94h1.54V258.24z
		 M119.65,291.9h15.15l-7.57-19.22L119.65,291.9z"/>
	<path id="XMLID_20_" d="M130.17,258.24l-0.56,0.28c0,0,4.77,12.06,9.68,24.27c2.38,6.17,4.91,12.34,6.87,17.11
		c0.98,2.38,1.82,4.35,2.38,5.89c0.28,0.7,0.56,1.4,0.7,1.82c0.14,0.28,0.14,0.42,0.28,0.56c0.14,0.14,0.14,0.28,0.14,0.28
		c0.56,0.98,1.26,1.54,1.96,1.96c0.56,0.42,1.12,0.56,1.12,0.56l0.28-0.56v-0.7c-0.7,0-2.95,0-5.19,0c-3.23,0-6.73,0-7.86,0v0.7h0.7
		h-0.56l0.56,0.28c0,0,0-0.14,0-0.28h-0.56l0.56,0.28l-0.42-0.28l0.42,0.42c0,0,0,0,0.14-0.14l-0.42-0.28l0.42,0.42l-0.14-0.14
		l0.14,0.14l0,0l-0.14-0.14l0.14,0.14c0,0,0.14-0.14,0.28-0.14c0.14-0.14,0.42-0.42,0.7-0.7c0.28-0.28,0.42-0.7,0.42-1.26
		c0-0.28,0-0.56-0.14-0.84l-0.56,0.28l0.56-0.28c-0.7-1.68-1.68-4.35-2.81-6.87c-1.12-2.52-2.1-5.19-2.81-7.01l-0.14-0.42h-17.81
		l-0.14,0.42c-1.26,3.37-4.35,12.2-4.91,13.89l0,0l0,0c0,0.28-0.14,0.56-0.14,0.84c0,0.42,0.14,0.7,0.28,0.98
		c0.28,0.42,0.56,0.7,0.84,0.84c0.28,0.14,0.56,0.28,0.7,0.28l0.28-0.56v-0.7c-0.56,0-1.82,0-3.37,0c-1.96,0-4.07,0-4.91,0v0.7
		l0.28,0.56c0,0,0.56-0.14,1.12-0.7c0.28-0.28,0.56-0.42,0.84-0.84c0.28-0.28,0.42-0.84,0.56-1.26l0,0c0-0.14,0.14-0.42,0.28-0.84
		c1.26-3.51,6.03-15.71,10.52-27.07c2.24-5.61,4.35-11.08,6.03-15.15c0.84-1.96,1.4-3.65,1.96-4.91c0.42-1.12,0.7-1.82,0.7-1.82
		l-0.56-0.28v0.7h1.54v-0.42l-0.56,0.28L130.17,258.24v-0.7h-1.96l-0.14,0.42c0,0-4.77,12.06-9.68,24.41
		c-2.38,6.17-4.91,12.34-6.73,17.11c-0.98,2.38-1.68,4.35-2.24,5.89c-0.28,0.7-0.56,1.4-0.7,1.82c-0.14,0.28-0.14,0.42-0.14,0.56
		s-0.14,0.28-0.14,0.42c0,0.28-0.14,0.56-0.28,0.7c-0.28,0.28-0.56,0.56-0.84,0.84c-0.14,0.14-0.28,0.14-0.42,0.14h-0.14l0,0l0,0
		l0.14,0.28l-0.14-0.28l0,0l0.14,0.28l-0.14-0.28l0.28,1.26c0.84,0,2.95,0,4.91,0c1.4,0,2.67,0,3.37,0h2.52l-2.1-1.12
		c-0.14-0.14-0.28-0.14-0.42-0.28c-0.28-0.14-0.42-0.28-0.56-0.28c-0.14-0.14-0.14-0.28-0.14-0.42c0-0.14,0-0.28,0-0.42l-0.7-0.14
		l0.56,0.28c0.56-1.68,3.65-10.52,4.91-13.89l-0.56-0.28v0.7h16.83v-0.7l-0.56,0.28c0.7,1.82,1.68,4.49,2.81,7.01
		c1.12,2.52,2.1,5.05,2.81,6.73l0,0l0,0c0,0.14,0,0.28,0.14,0.28c0,0.14,0,0.28-0.14,0.42c-0.14,0.14-0.28,0.42-0.56,0.56
		c-0.14,0.14-0.14,0.14-0.28,0.14l-0.14,0.14c0,0,0,0-0.14,0.14c0,0-0.14,0.14-0.14,0.42v0.7h0.7c1.12,0,4.63,0,7.86,0
		c2.38,0,4.49,0,5.19,0l0.28-1.26v0.14v-0.14l0,0v0.14v-0.14c0,0-1.54-0.7-2.38-2.1c0,0,0-0.14-0.14-0.28
		c-0.28-0.56-0.7-1.68-1.4-3.37c-2.38-5.75-7.01-17.39-11.08-27.49c-1.96-5.05-3.93-9.68-5.19-13.19c-0.7-1.68-1.26-3.09-1.68-4.07
		s-0.56-1.54-0.56-1.54l-0.14-0.42h-0.42v0.56H130.17z M119.65,291.9v0.7h16.13l-8.56-21.74l-8.42,21.74h0.98v-0.7l0.56,0.28
		l6.87-17.67l6.59,16.83h-14.17L119.65,291.9l0.56,0.28L119.65,291.9z"/>
	<path id="XMLID_23_" d="M486.05,258.24c0,0,19.08,48.25,20.06,49.8c1.12,1.68,2.67,2.38,2.67,2.38c-1.82,0-11.22,0-13.05,0
		c0-0.14,1.68-0.84,1.12-2.24c-1.26-3.37-4.07-10.1-5.47-13.75h-16.83c-1.12,3.37-4.21,12.2-4.77,13.89
		c-0.56,1.68,0.7,1.96,1.26,2.24c-1.4,0-6.87,0-8.14,0c0,0,1.96-0.7,2.1-2.24c0.28-1.54,19.5-49.94,19.5-49.94h1.54V258.24z
		 M475.53,291.9h15.15l-7.57-19.22L475.53,291.9z"/>
	<path id="XMLID_26_" d="M486.05,258.24l-0.56,0.28c0,0,4.77,12.06,9.68,24.27c2.38,6.17,4.91,12.34,6.87,17.11
		c0.98,2.38,1.82,4.35,2.38,5.89c0.28,0.7,0.56,1.4,0.7,1.82c0.14,0.28,0.14,0.42,0.28,0.56c0.14,0.14,0.14,0.28,0.14,0.28l0,0l0,0
		c1.26,1.82,2.95,2.52,2.95,2.52l0.28-0.56v-0.7c-0.7,0-2.95,0-5.19,0c-3.23,0-6.73,0-7.86,0v0.7h0.7h-0.56l0.56,0.28
		c0,0,0-0.14,0-0.28h-0.56l0.56,0.28l-0.42-0.28l0.42,0.42c0,0,0,0,0.14-0.14l-0.42-0.28l0.42,0.42l-0.14-0.14l0.14,0.14l0,0
		l-0.14-0.14l0.14,0.14c0,0,0.14-0.14,0.28-0.14c0.14-0.14,0.42-0.42,0.7-0.7c0.28-0.28,0.42-0.7,0.42-1.26c0-0.28,0-0.56-0.14-0.84
		l-0.56,0.28l0.56-0.28c-1.26-3.51-4.07-10.24-5.47-13.75l-0.14-0.42h-17.81l-0.14,0.42c-1.12,3.37-4.21,12.2-4.77,13.89
		c-0.14,0.28-0.14,0.7-0.14,0.98c0,0.42,0.14,0.7,0.28,0.98c0.28,0.42,0.56,0.7,0.84,0.84c0.28,0.14,0.56,0.28,0.7,0.28l0.28-0.56
		v-0.7c-0.7,0-2.38,0-4.21,0c-1.68,0-3.37,0-4.07,0v0.7l0.28,0.56c0,0,0.56-0.14,1.12-0.7c0.28-0.28,0.56-0.42,0.84-0.84
		c0.28-0.42,0.42-0.84,0.56-1.26h-0.7l0.7,0.14l0,0c0-0.14,0.14-0.42,0.28-0.84c1.26-3.51,6.03-15.71,10.52-27.07
		c2.24-5.61,4.35-11.08,6.03-15.15c0.84-1.96,1.4-3.65,1.96-4.91c0.42-1.12,0.7-1.82,0.7-1.82l-0.56-0.28v0.7h1.54v-0.84l-0.56,0.28
		L486.05,258.24v-0.7h-1.96l-0.14,0.42c0,0-4.77,12.06-9.68,24.41c-2.38,6.17-4.91,12.34-6.73,17.11c-0.98,2.38-1.68,4.35-2.24,5.89
		c-0.28,0.7-0.56,1.4-0.7,1.82c-0.14,0.28-0.14,0.42-0.14,0.56s-0.14,0.28-0.14,0.42l0,0l0,0c0,0.28-0.14,0.42-0.28,0.7
		c-0.28,0.28-0.56,0.56-0.84,0.7c-0.14,0.14-0.28,0.14-0.42,0.14h-0.14l0,0l0,0l0.14,0.28l-0.14-0.28l0,0l0.14,0.28l-0.14-0.28
		l0.14,1.26c0.7,0,2.38,0,4.07,0c1.68,0,3.51,0,4.21,0h2.52l-2.1-1.12c-0.14-0.14-0.28-0.14-0.42-0.28
		c-0.28-0.14-0.42-0.14-0.42-0.28c-0.14-0.14-0.14-0.14-0.14-0.42c0-0.14,0-0.28,0.14-0.56c0.56-1.68,3.65-10.52,4.77-13.89
		l-0.56-0.14v0.7h16.83v-0.7l-0.56,0.28c1.4,3.65,4.21,10.38,5.47,13.75l0,0l0,0c0,0.14,0,0.28,0,0.28c0,0.14,0,0.28-0.14,0.42
		c-0.14,0.14-0.28,0.42-0.56,0.56c-0.14,0.14-0.14,0.14-0.28,0.14l-0.14,0.14c0,0,0,0-0.14,0.14c0,0-0.14,0.14-0.14,0.42v0.7h0.7
		c1.12,0,4.63,0,7.86,0c2.38,0,4.49,0,5.19,0H512l-2.95-1.26l-0.14,0.14l0.14-0.14l0,0l-0.14,0.14l0.14-0.14c0,0-1.4-0.56-2.38-2.1
		l-0.56,0.42l0.56-0.28c0,0,0-0.14-0.14-0.28c-0.28-0.56-0.7-1.68-1.4-3.37c-2.38-5.75-7.01-17.39-11.08-27.49
		c-1.96-5.05-3.93-9.68-5.19-13.19c-0.7-1.68-1.26-3.09-1.68-4.07c-0.42-0.98-0.56-1.54-0.56-1.54l-0.14-0.42h-0.42V258.24z
		 M475.53,291.9v0.7h16.13l-8.56-21.74l-8.42,21.74h0.98v-0.7l0.56,0.28l6.87-17.67l6.59,16.83h-14.17V291.9l0.56,0.28L475.53,291.9
		z"/>
	<path id="XMLID_27_" d="M265.54,306.21c-3.37,1.96-7.57,2.52-11.78,2.52c-9.12,0-18.52-9.12-18.52-23.71
		c0-14.87,8-23.15,17.81-23.15c6.45,0,14.31,3.79,17.67,10.38c0,0,0-5.61,0-8.14c-3.65-1.54-8.56-4.49-17.39-4.49
		c-15.01,0-27.07,8.56-27.07,25.81c0,15.01,10.52,25.67,25.53,25.67c6.87,0,13.19-0.7,18.94-2.81c0,0,0-13.61,0-16.27
		c0-1.12,2.1-2.1,2.1-2.1c-2.24,0-6.17,0-9.68,0c0,0,1.96,0.98,2.1,2.1C265.54,294.15,265.54,306.21,265.54,306.21z"/>
	<path id="XMLID_28_" d="M265.54,306.21l-0.28-0.56c-3.23,1.96-7.29,2.38-11.36,2.38c-4.35,0-8.7-2.1-12.2-6.17
		c-3.37-3.93-5.75-9.82-5.75-16.97c0-7.29,1.96-13.05,5.05-16.83c3.09-3.79,7.43-5.75,12.06-5.75c3.09,0,6.59,0.98,9.68,2.67
		c3.09,1.68,5.75,4.21,7.43,7.43l1.26,2.38v-2.67c0,0,0-5.61,0-8.14v-0.42l-0.42-0.14c-3.65-1.54-8.7-4.63-17.67-4.63
		c-7.57,0-14.59,2.24-19.5,6.59c-5.05,4.49-8.14,11.08-8.14,19.92c0,7.72,2.67,14.31,7.29,18.94c4.63,4.63,11.22,7.43,18.94,7.43
		c7.01,0,13.33-0.7,19.22-2.95l0.42-0.14v-0.42c0,0,0-13.61,0-16.27c0,0,0-0.14,0.14-0.42c0.28-0.28,0.56-0.56,0.98-0.84
		c0.14-0.14,0.28-0.14,0.42-0.28l0.14-0.14l0,0l0,0l2.38-1.26h-2.67c-1.12,0-2.67,0-4.35,0c-1.68,0-3.51,0-5.19,0h-2.67l2.38,1.26
		l0,0c0.14,0,0.56,0.28,0.98,0.7c0.28,0.14,0.42,0.42,0.56,0.56c0.14,0.14,0.28,0.28,0.28,0.42l0.7-0.14h-0.7
		c0,2.24,0,14.31,0,14.31h0.56l-0.28-0.56L265.54,306.21h0.7c0,0,0-12.06,0-14.31l0,0l0,0c0-0.42-0.28-0.84-0.56-1.12
		c-0.42-0.42-0.84-0.84-1.26-1.12c-0.42-0.28-0.7-0.42-0.7-0.42l-0.28,0.56v0.7c1.68,0,3.51,0,5.19,0c1.68,0,3.23,0,4.35,0v-0.7
		l-0.28-0.56c0,0-0.56,0.28-1.12,0.7c-0.28,0.28-0.56,0.42-0.84,0.84c-0.28,0.28-0.42,0.7-0.42,1.12c0,2.67,0,16.27,0,16.27h0.7
		l-0.28-0.56c-5.75,2.1-11.78,2.81-18.66,2.81c-7.43,0-13.61-2.67-17.96-7.01c-4.35-4.35-6.87-10.66-6.87-17.96
		c0-8.56,2.95-14.73,7.72-18.94c4.77-4.21,11.36-6.31,18.66-6.31c8.56,0,13.33,2.95,17.11,4.49l0.28-0.56h-0.98
		c0,2.52,0,8.14,0,8.14h0.7l0.56-0.28c-1.82-3.37-4.63-6.17-8-8c-3.23-1.82-6.87-2.81-10.38-2.81c-5.05,0-9.68,2.1-13.05,6.17
		c-3.37,4.07-5.33,10.1-5.33,17.67c0,7.43,2.38,13.61,6.03,17.81c3.65,4.21,8.42,6.59,13.19,6.59c4.21,0,8.56-0.56,12.06-2.67
		l0.28-0.14v-0.42L265.54,306.21L265.54,306.21z"/>
	<path id="XMLID_31_" d="M302.85,308.31c0.14,1.12,2.1,2.1,2.1,2.1c-2.24,0-6.31,0-7.43,0c-0.98-0.14-3.65,0-5.75,0
		c0,0,1.96-1.12,2.1-2.1c0-2.67,0-43.63,0-46.29c-0.14-1.12-2.1-2.1-2.1-2.1c2.67,0,14.03,0,14.03,0c10.38,0,18.24,4.91,18.24,12.34
		c0,8.56-8,12.48-10.24,13.47c2.1,1.26,4.63,4.49,5.61,5.89c2.81,3.93,4.91,8,6.17,10.1c4.49,7.43,7.01,8.14,7.01,8.14
		c-3.09,0.98-5.89,1.26-7.72,0.84c-6.03-1.4-11.92-21.46-16.13-22.86c-1.26-0.42-5.89-0.42-5.89-0.42V308.31z M302.85,284.89
		c1.54,0.14,4.35,0.42,7.15-0.42c5.33-1.54,7.29-5.61,7.29-11.36c0-5.05-2.67-10.1-7.57-11.08c-3.79-0.7-4.35-0.56-6.87-0.14
		L302.85,284.89L302.85,284.89z"/>
	<path id="XMLID_34_" d="M302.85,308.31l-0.7,0.14c0,0.42,0.28,0.84,0.56,1.12c0.42,0.42,0.84,0.84,1.26,1.12
		c0.42,0.28,0.7,0.42,0.7,0.42l0.28-0.56v-0.7c-0.42,0-0.84,0-1.4,0c-1.26,0-2.67,0-3.93,0c-0.98,0-1.68,0-2.24,0v0.7v-0.7
		c-0.42,0-0.98,0-1.68,0c-0.84,0-1.96,0-2.95,0c-0.42,0-0.84,0-1.26,0v0.7l0.28,0.56c0,0,0.56-0.28,1.12-0.7
		c0.28-0.28,0.56-0.42,0.84-0.84c0.28-0.28,0.42-0.7,0.56-1.12l0,0l0,0c0-2.67,0-43.63,0-46.29l0,0l0,0c0-0.42-0.28-0.84-0.56-1.12
		c-0.42-0.42-0.84-0.84-1.26-1.12s-0.7-0.42-0.7-0.42l-0.28,0.56v0.7c0.84,0,2.81,0,4.77,0c2.1,0,4.35,0,6.17,0
		c1.82,0,3.09,0,3.09,0l0,0c5.05,0,9.54,1.26,12.62,3.23c1.54,0.98,2.81,2.24,3.65,3.65s1.26,2.95,1.26,4.77
		c0,4.07-1.96,7.01-4.07,9.12c-2.24,2.1-4.63,3.23-5.75,3.65l-1.12,0.56l1.12,0.7c0.98,0.56,2.1,1.68,3.09,2.81s1.82,2.24,2.38,2.95
		l0,0c2.81,3.93,4.91,8,6.17,10.1l0,0l0,0c2.24,3.79,4.07,5.89,5.33,7.01s1.96,1.4,2.1,1.4l0.14-0.7l-0.14-0.56
		c-2.1,0.7-4.07,0.98-5.61,0.98c-0.7,0-1.26,0-1.82-0.14l0,0c-0.56-0.14-1.26-0.56-1.96-1.12c-1.26-1.12-2.52-2.95-3.79-5.05
		c-1.82-3.23-3.65-7.01-5.33-10.24c-0.84-1.54-1.68-3.09-2.52-4.21c-0.42-0.56-0.84-0.98-1.26-1.4s-0.84-0.7-1.26-0.84l-0.28,0.56
		l0.28-0.56c-0.28-0.14-0.7-0.14-1.12-0.28c-1.4-0.14-3.23-0.14-4.35-0.14c-0.42,0-0.7,0-0.7,0h-0.7v21.74l0,0L302.85,308.31h0.7
		v-21.04h-0.7v0.7c0,0,0.28,0,0.7,0c0.7,0,1.68,0,2.67,0c0.56,0,0.98,0,1.4,0.14c0.42,0,0.7,0.14,0.84,0.14l0,0l0,0
		c0.28,0.14,0.84,0.56,1.4,1.12c0.98,1.12,1.96,2.95,3.09,5.05c1.68,3.23,3.51,7.01,5.47,10.24c0.98,1.54,1.96,3.09,2.95,4.21
		s2.1,1.96,3.37,2.24l0,0l0,0c0.56,0.14,1.26,0.28,2.1,0.28c1.68,0,3.79-0.28,6.03-0.98l2.1-0.7l-2.24-0.56l-0.14,0.42l0.14-0.42
		l0,0l-0.14,0.42l0.14-0.42l0,0c-0.14,0-2.52-0.98-6.73-7.86l-0.56,0.28l0.56-0.28c-1.26-2.1-3.37-6.17-6.31-10.24l0,0
		c-0.56-0.7-1.4-1.82-2.38-2.95c-0.98-1.12-2.24-2.24-3.37-2.95l-0.28,0.56l0.28,0.56c1.12-0.42,3.65-1.68,6.03-3.93
		c2.38-2.24,4.49-5.61,4.49-10.1c0-1.96-0.56-3.79-1.54-5.47c-1.4-2.38-3.79-4.35-6.87-5.61c-2.95-1.26-6.59-1.96-10.52-1.96l0,0
		c0,0-5.05,0-9.12,0c-2.1,0-3.93,0-4.77,0h-2.52l2.24,1.26l0,0c0.14,0,0.56,0.28,0.98,0.7c0.28,0.14,0.42,0.42,0.56,0.56
		c0.14,0.14,0.28,0.28,0.28,0.42l0.7-0.14h-0.7c0,2.67,0,43.63,0,46.29h0.7l-0.7-0.14c0,0.14-0.14,0.28-0.28,0.42
		c-0.28,0.28-0.7,0.56-0.98,0.84c-0.14,0.14-0.28,0.14-0.42,0.28l-0.14,0.14l0,0l0,0l-2.24,1.26h2.52c0.42,0,0.84,0,1.26,0
		c0.98,0,2.1,0,2.95,0c0.7,0,1.26,0,1.54,0l0,0l0,0c0.42,0,1.12,0,2.1,0c1.26,0,2.67,0,3.93,0c0.56,0,0.98,0,1.4,0h2.52l-2.24-1.26
		l0,0c-0.14,0-0.56-0.28-0.98-0.7c-0.28-0.14-0.42-0.42-0.56-0.56s-0.28-0.28-0.28-0.42L302.85,308.31h0.7H302.85z M302.85,284.89
		v0.7c0.7,0,1.82,0.14,3.09,0.14s2.81-0.14,4.35-0.56c2.81-0.84,4.77-2.24,6.03-4.35c1.26-2.1,1.82-4.63,1.82-7.57
		c0-2.67-0.7-5.33-2.1-7.43c-1.4-2.1-3.37-3.79-6.03-4.21l0,0l0,0c-1.82-0.42-2.95-0.56-4.07-0.56c-0.98,0-1.82,0.14-3.23,0.42
		l-0.56,0.14v23.85h0.56L302.85,284.89h0.7v-22.86h-0.7l0.14,0.7c1.26-0.28,2.1-0.42,2.95-0.42c0.84,0,1.96,0.14,3.79,0.42l0.14-0.7
		l-0.14,0.7c2.24,0.42,4.07,1.82,5.19,3.65c1.26,1.82,1.82,4.21,1.82,6.73c0,2.81-0.42,5.19-1.54,6.87
		c-1.12,1.82-2.81,3.09-5.33,3.79c-1.4,0.42-2.81,0.56-4.07,0.56c-1.12,0-2.1-0.14-2.95-0.14L302.85,284.89h0.7H302.85z"/>
	<polygon id="XMLID_35_" points="67.19,372.56 67.19,382.52 69.16,382.52 69.16,383.22 62,383.22 62,382.52 63.96,382.52 
		63.96,362.74 62,362.74 62,362.04 69.16,362.04 69.16,362.74 67.19,362.74 67.19,371.86 75.19,371.86 75.19,362.74 73.22,362.74 
		73.22,362.04 80.24,362.04 80.24,362.74 78.41,362.74 78.41,382.52 80.24,382.52 80.24,383.22 73.22,383.22 73.22,382.52 
		75.19,382.52 75.19,372.56 	"/>
	<polygon id="XMLID_36_" points="67.19,372.56 66.77,372.56 66.77,382.94 68.73,382.94 68.73,383.22 69.16,383.22 69.16,382.8 
		62.56,382.8 62.56,382.52 62,382.52 62,382.94 64.39,382.94 64.39,362.32 62.56,362.32 62.56,362.04 62,362.04 62,362.6 
		68.73,362.6 68.73,362.74 69.16,362.74 69.16,362.32 66.77,362.32 66.77,372.42 75.61,372.42 75.61,362.32 73.64,362.32 
		73.64,362.04 73.22,362.04 73.22,362.6 79.82,362.6 79.82,362.74 80.24,362.74 80.24,362.32 77.99,362.32 77.99,382.94 
		79.82,382.94 79.82,383.22 80.24,383.22 80.24,382.8 73.64,382.8 73.64,382.52 73.22,382.52 73.22,382.94 75.61,382.94 
		75.61,372.14 66.77,372.14 66.77,372.56 67.19,372.56 67.19,372.98 74.77,372.98 74.77,382.1 72.8,382.1 72.8,383.64 80.8,383.64 
		80.8,382.1 78.97,382.1 78.97,363.16 80.8,363.16 80.8,361.62 72.8,361.62 72.8,363.16 74.77,363.16 74.77,371.44 67.61,371.44 
		67.61,363.16 69.58,363.16 69.58,361.62 61.58,361.62 61.58,363.16 63.4,363.16 63.4,382.1 61.58,382.1 61.58,383.64 69.58,383.64 
		69.58,382.1 67.61,382.1 67.61,372.56 67.19,372.56 67.19,372.98 	"/>
	<path id="XMLID_37_" d="M118.25,382.52h2.24v-19.78h-1.96c-1.26,0-1.68,0.28-2.95,6.03h-0.56v-6.73h14.59v6.73h-0.7
		c-1.26-5.75-1.54-6.03-2.95-6.03H124v19.78h2.24v0.7h-7.86v-0.7H118.25z"/>
	<path id="XMLID_38_" d="M118.25,382.52v0.42h2.67v-20.62h-2.38c-0.28,0-0.7,0-0.98,0.14c-0.28,0.14-0.42,0.28-0.7,0.56
		c-0.28,0.42-0.56,0.98-0.84,1.96c-0.28,0.84-0.56,2.1-0.98,3.65l0.42,0.14v-0.42h-0.14v-5.75h13.75v5.89h-0.28v0.42l0.42-0.14
		c-0.7-2.95-0.98-4.35-1.4-5.33c-0.28-0.42-0.56-0.7-0.84-0.98c-0.42-0.14-0.7-0.14-1.12-0.14h-2.38v20.62h2.24v0.28h0.42v-0.42
		h-7.43v-0.28H118.25v0.42V382.52h-0.42v0.7v0.42h8.84v-1.54h-2.24v-18.94h1.54c0.28,0,0.56,0,0.7,0.14c0.14,0,0.14,0.14,0.28,0.28
		c0.14,0.28,0.42,0.84,0.7,1.68s0.56,1.96,0.84,3.65l0.14,0.28h1.54v-7.57h-15.43v7.57h1.4l0.14-0.28c0.56-2.81,1.12-4.35,1.4-5.05
		c0.14-0.42,0.28-0.42,0.42-0.56c0.14,0,0.28-0.14,0.56-0.14h1.54v18.94h-2.24v0.42H118.25z"/>
	<path id="XMLID_39_" d="M138.73,383.22v-0.7h1.82v-19.78h-1.82v-0.7h15.57v6.73h-0.7c-1.68-5.75-2.1-6.17-3.65-6.17h-6.17v9.12
		h2.38c1.54,0,2.24-0.98,2.81-4.21h0.7v9.12h-0.7c-0.56-3.23-1.26-4.21-2.81-4.21h-2.38v9.96h5.33c2.24,0,2.81-0.84,4.63-7.15h0.7
		v7.86h-15.71V383.22z"/>
	<path id="XMLID_40_" d="M138.73,383.22h0.42v-0.28h1.82v-20.62h-1.82v-0.28h-0.42v0.42h15.15v5.89h-0.28v0.42l0.42-0.14
		c-0.84-2.81-1.4-4.35-1.96-5.33c-0.28-0.42-0.56-0.7-0.98-0.98c-0.42-0.14-0.7-0.14-1.12-0.14h-6.45v10.1h2.81
		c0.42,0,0.84,0,1.26-0.28c0.56-0.28,0.98-0.7,1.26-1.4c0.28-0.7,0.56-1.68,0.7-2.81l-0.42-0.14v0.42h0.28v8.28h-0.28v0.42
		l0.42-0.14c-0.28-1.68-0.56-2.81-1.12-3.51c-0.28-0.42-0.56-0.7-0.98-0.84s-0.84-0.28-1.26-0.28h-2.81v10.8h5.75
		c0.56,0,1.12,0,1.54-0.28c0.42-0.14,0.7-0.42,0.98-0.7c0.84-0.98,1.4-2.81,2.52-6.45l-0.42-0.14v0.42h0.28v6.87h-15.43v0.7h0.42
		H138.73v0.42H155v-8.7h-1.54l-0.14,0.28c-0.98,3.09-1.54,4.91-2.1,5.89c-0.28,0.42-0.56,0.7-0.84,0.84
		c-0.28,0.14-0.7,0.14-1.26,0.14h-4.91v-9.12h1.96c0.28,0,0.56,0,0.84,0.14c0.28,0.14,0.56,0.42,0.84,0.98
		c0.28,0.56,0.56,1.4,0.7,2.67v0.42h1.54v-9.96h-1.54v0.42c-0.28,1.54-0.56,2.67-0.98,3.23c-0.14,0.28-0.42,0.42-0.56,0.56
		c-0.28,0.14-0.42,0.14-0.84,0.14h-1.96v-8.28h5.61c0.42,0,0.56,0,0.84,0.14c0.14,0,0.28,0.14,0.42,0.42
		c0.28,0.28,0.56,0.84,0.84,1.68c0.28,0.84,0.7,2.1,1.12,3.65l0.14,0.28h1.4v-7.72h-16.41v1.54h1.82v18.94h-1.82v1.54h0.42v-0.56
		H138.73z"/>
	<path id="XMLID_41_" d="M170.29,382.52h4.49c1.96,0,2.52-0.42,4.35-7.86h0.7v8.42h-14.87v-0.7h1.82V362.6h-1.82v-0.7h8.14v0.7
		h-2.95v19.92H170.29z"/>
	<path id="XMLID_42_" d="M170.29,382.52v0.42h4.49c0.56,0,0.98,0,1.4-0.14c0.28-0.14,0.7-0.42,0.98-0.7
		c0.42-0.56,0.7-1.26,1.12-2.38c0.42-1.12,0.84-2.67,1.26-4.77l-0.42-0.14v0.42h0.28v7.57h-14.03v-0.28h-0.42v0.42h2.24v-20.62
		h-1.82v-0.28h-0.42v0.42h7.72v0.28h0.42v-0.42h-3.37v20.62h0.42v-0.42h0.42v-19.36h2.95v-1.54h-9.12v1.54h1.82v18.94h-1.82v1.54
		h15.85v-9.4h-1.4l-0.14,0.28c-0.98,3.65-1.54,5.61-2.1,6.59c-0.28,0.42-0.56,0.7-0.84,0.7c-0.28,0.14-0.56,0.14-1.12,0.14h-4.49
		v0.56h0.42H170.29z"/>
	<path id="XMLID_43_" d="M189.51,375.23c1.26,5.75,2.52,7.72,5.47,7.72c2.67,0,4.91-1.82,4.91-4.49c0-6.03-11.5-3.65-11.5-10.94
		c0-3.65,2.81-6.03,7.01-6.03c2.24,0,4.07,0.56,5.61,1.26v6.03h-0.7c0,0-0.28-1.12-0.98-3.51c-0.84-2.38-2.24-3.09-4.21-3.09
		c-2.67,0-4.63,1.82-4.63,4.07s1.54,2.95,5.75,4.49c4.49,1.68,6.03,2.81,6.03,6.17c0,3.79-3.23,6.73-7.86,6.73
		c-1.82,0-4.35-0.84-5.61-1.68v-6.73H189.51z"/>
	<path id="XMLID_44_" d="M189.51,375.23l-0.42,0.14c0.7,2.81,1.26,4.91,2.24,6.17c0.42,0.7,0.98,1.12,1.68,1.54
		c0.56,0.28,1.4,0.42,2.1,0.42c1.4,0,2.81-0.56,3.79-1.4c0.98-0.84,1.68-2.1,1.68-3.51c0-0.84-0.14-1.54-0.56-2.1
		c-0.56-0.98-1.68-1.68-2.81-2.24c-1.68-0.84-3.79-1.4-5.33-2.24c-0.84-0.42-1.4-0.98-1.96-1.68c-0.42-0.7-0.7-1.54-0.7-2.67
		c0-1.68,0.7-3.09,1.82-4.07c1.12-0.98,2.81-1.54,4.91-1.54c2.24,0,3.93,0.56,5.47,1.12l0.14-0.42h-0.42v5.61h-0.28v0.42l0.42-0.14
		c0,0-0.28-1.12-0.98-3.51l0,0l0,0c-0.42-1.26-1.12-2.1-1.82-2.67c-0.84-0.56-1.68-0.7-2.81-0.7c-1.4,0-2.67,0.42-3.65,1.26
		c-0.98,0.84-1.54,1.96-1.54,3.23c0,0.56,0.14,1.12,0.42,1.68c0.42,0.7,0.98,1.26,1.96,1.68c0.98,0.42,2.1,0.98,3.79,1.54l0.14-0.42
		l-0.14,0.42c2.24,0.84,3.79,1.54,4.63,2.38c0.42,0.42,0.7,0.84,0.98,1.4c0.14,0.56,0.28,1.26,0.28,1.96c0,1.82-0.7,3.37-2.1,4.49
		c-1.26,1.12-3.23,1.82-5.47,1.82c-0.84,0-1.96-0.14-2.95-0.56c-0.98-0.28-1.96-0.7-2.52-1.12l-0.28,0.42h0.42v-6.31h0.14v-0.42
		l-0.42,0.14L189.51,375.23v-0.42h-0.56h-0.42v7.43l0.14,0.14c0.7,0.56,1.68,0.98,2.81,1.26c1.12,0.28,2.24,0.56,3.23,0.56
		c2.38,0,4.49-0.7,6.03-1.96c1.54-1.26,2.38-3.09,2.38-5.19c0-0.84-0.14-1.68-0.28-2.24c-0.42-0.98-0.98-1.82-1.96-2.52
		c-0.98-0.7-2.24-1.26-4.07-1.82l0,0c-2.1-0.84-3.51-1.26-4.35-1.96c-0.42-0.28-0.7-0.56-0.84-0.84c-0.14-0.28-0.28-0.7-0.28-1.26
		c0-0.98,0.42-1.82,1.12-2.52c0.7-0.7,1.82-1.12,3.09-1.12c0.98,0,1.68,0.14,2.24,0.56c0.56,0.42,1.12,1.12,1.54,2.24l0.42-0.14
		l-0.42,0.14c0.42,1.26,0.56,2.1,0.7,2.67c0.14,0.28,0.14,0.56,0.14,0.7s0,0.14,0,0.14l0.14,0.28h1.54v-6.73l-0.28-0.14
		c-1.54-0.7-3.51-1.26-5.89-1.26c-2.24,0-4.07,0.7-5.47,1.82c-1.4,1.12-2.1,2.81-2.1,4.77c0,0.98,0.14,1.82,0.56,2.52
		c0.56,1.26,1.68,2.1,2.81,2.67c1.82,0.98,3.79,1.54,5.47,2.24c0.84,0.42,1.4,0.84,1.96,1.4c0.42,0.56,0.7,1.26,0.7,2.1
		c0,1.12-0.56,2.1-1.26,2.95c-0.84,0.7-1.96,1.12-3.23,1.12c-0.7,0-1.26-0.14-1.68-0.42c-0.7-0.42-1.26-0.98-1.82-2.24
		c-0.56-1.12-0.98-2.81-1.54-4.91l-0.14-0.28h-0.42L189.51,375.23L189.51,375.23z"/>
	<path id="XMLID_45_" d="M237.9,371.02h3.37l-0.42,1.68h0.14c0.7-0.98,2.1-1.96,3.79-1.96c1.82,0,2.95,0.84,2.38,3.51l-1.82,8.42
		h1.26v0.56h-4.91l0.14-0.56h1.26l1.96-8.84c0.28-1.82-0.14-2.38-1.26-2.38c-1.26,0-2.67,1.12-3.23,3.65l-1.54,7.57h1.4l-0.14,0.56
		h-4.91l0.14-0.56h1.26l2.24-11.08h-1.26L237.9,371.02z"/>
	<path id="XMLID_46_" d="M237.9,371.02v0.42h2.81l-0.42,1.68h0.7h0.28l0.14-0.14c0.56-0.98,1.96-1.82,3.51-1.82
		c0.7,0,1.26,0.14,1.54,0.42c0.28,0.28,0.56,0.7,0.56,1.4c0,0.28,0,0.7-0.14,1.12l-1.96,8.98h1.4v0.14h0.42v-0.42h-4.91v0.42
		l0.42,0.14v-0.14h0.98h0.28l2.1-9.12l0,0c0-0.42,0.14-0.7,0.14-0.98c0-0.28,0-0.56-0.14-0.84c-0.14-0.42-0.28-0.7-0.7-0.84
		c-0.28-0.14-0.7-0.28-0.98-0.28c-0.7,0-1.54,0.28-2.24,0.98c-0.7,0.7-1.12,1.68-1.54,2.95l0,0l-1.68,8h1.96v-0.42l-0.42-0.14v0.14
		h-4.63v0.42l0.42,0.14v-0.14h0.98h0.42l2.38-11.92h-1.82v0.42l0.42,0.14l0.14-0.56L237.9,371.02v0.42V371.02l-0.42-0.14l-0.14,0.56
		L237.2,372h1.26l-2.1,10.24h-0.98h-0.28l-0.42,1.4h5.89l0.42-1.4h-1.4l1.4-7.01l-0.42,0l0.42,0.14c0.28-1.12,0.7-1.96,1.26-2.52
		c0.56-0.56,1.12-0.7,1.54-0.7c0.14,0,0.42,0,0.42,0c0.14,0,0.28,0.14,0.28,0.28c0.14,0.14,0.14,0.28,0.14,0.7
		c0,0.28,0,0.56-0.14,0.84h0.42l-0.14-0.14l-1.96,8.42h-0.84h-0.28l-0.42,1.4h5.89v-1.4h-1.12l1.68-8c0.14-0.42,0.14-0.98,0.14-1.26
		c0-0.98-0.28-1.68-0.84-2.1c-0.56-0.42-1.26-0.56-2.1-0.56c-1.82,0-3.37,1.12-4.21,2.24l0.42,0.28v-0.42h-0.14v0.42l0.42,0.14
		l0.56-2.24h-4.35l-0.14,0.28L237.9,371.02z"/>
	<path id="XMLID_49_" d="M259.09,383.22l0.28-1.4c-0.7,1.12-1.68,1.82-3.37,1.82c-2.1,0-3.79-2.24-2.95-6.45s3.37-6.45,5.75-6.45
		c1.26,0,2.1,0.7,2.38,1.82l1.12-5.33h-1.12l0.14-0.56h3.37l-3.37,15.99h1.12l-0.14,0.56L259.09,383.22L259.09,383.22z
		 M256.7,383.08c1.54,0,2.81-1.82,3.65-5.75c0.84-4.35,0.28-6.03-1.26-6.03c-1.4,0-2.67,1.12-3.65,6.03
		C254.6,381.68,255.16,383.08,256.7,383.08z"/>
	<path id="XMLID_52_" d="M259.09,383.22l0.42,0.14l0.28-1.4l-0.84-0.28c-0.28,0.56-0.7,0.84-1.12,1.12
		c-0.42,0.28-1.12,0.42-1.82,0.42s-1.4-0.28-1.96-0.98c-0.56-0.7-0.84-1.68-0.84-2.95c0-0.56,0-1.26,0.28-1.96
		c0.42-1.96,1.26-3.51,2.24-4.63c0.98-0.98,2.1-1.54,3.23-1.54c0.56,0,0.98,0.14,1.26,0.42s0.56,0.56,0.7,1.12h0.84l1.26-5.89h-1.68
		v0.42l0.42,0.14v-0.14h2.52l-3.37,15.99h1.68v-0.42l-0.42-0.14v0.14h-2.95v0.42l0.42,0.14L259.09,383.22v0.42h3.65l0.42-1.4h-1.12
		l3.37-15.99h-4.21l-0.42,1.4h1.12l-0.98,4.77l0.42,0.14l0.42-0.14c-0.14-0.7-0.56-1.26-0.98-1.54c-0.56-0.42-1.12-0.56-1.82-0.56
		c-1.4,0-2.67,0.7-3.79,1.82c-1.12,1.12-1.96,2.81-2.38,5.05c-0.14,0.84-0.28,1.54-0.28,2.1c0,1.54,0.42,2.67,0.98,3.51
		c0.7,0.84,1.54,1.26,2.52,1.26c0.98,0,1.68-0.14,2.24-0.56c0.56-0.42,1.12-0.84,1.4-1.4l-0.42-0.28l-0.42-0.14l-0.42,1.96h0.56
		v-0.42H259.09z M256.7,383.08v0.42c0.42,0,0.98-0.14,1.4-0.42c0.56-0.42,1.12-1.12,1.54-1.96c0.42-0.98,0.84-2.1,1.12-3.65l0,0l0,0
		c0.28-1.4,0.42-2.52,0.42-3.37c0-0.98-0.14-1.68-0.56-2.24c-0.14-0.28-0.42-0.56-0.7-0.7s-0.56-0.14-0.84-0.14
		c-0.42,0-0.84,0.14-1.26,0.28c-0.56,0.28-1.12,0.98-1.54,1.96c-0.42,0.98-0.84,2.24-1.26,4.21l0,0c-0.28,1.4-0.42,2.52-0.42,3.37
		c0,0.98,0.14,1.68,0.56,2.1c0.14,0.28,0.42,0.42,0.7,0.56s0.56,0.14,0.84,0.14L256.7,383.08l0-0.42c-0.28,0-0.42,0-0.56-0.14
		c-0.14-0.14-0.28-0.28-0.42-0.56c-0.14-0.28-0.28-0.7-0.14-1.4c0-0.84,0.14-1.82,0.42-3.23l0,0c0.42-2.38,0.98-3.79,1.54-4.63
		c0.28-0.42,0.56-0.7,0.84-0.84c0.28-0.14,0.56-0.14,0.84-0.14c0.28,0,0.42,0,0.56,0.14s0.42,0.28,0.56,0.56
		c0.14,0.28,0.28,0.84,0.28,1.54c0,0.84-0.14,1.96-0.42,3.23l0.42,0.14l-0.42-0.14c-0.42,1.82-0.98,3.23-1.54,4.21
		c-0.28,0.42-0.56,0.7-0.84,0.98c-0.28,0.14-0.56,0.28-0.84,0.28v0.42H256.7z"/>
	<path id="XMLID_55_" d="M221.91,375.37l0.84-3.93c1.26-0.56,2.52-0.84,3.79-0.84c2.95,0,3.93,1.54,3.65,3.09l-1.82,8.98h1.12
		l-0.14,0.56h-3.23l0.42-2.1c-0.84,1.54-2.52,2.52-4.21,2.52c-2.1,0-3.23-1.26-2.81-3.37c0.84-4.21,5.47-2.95,8.14-4.49l0.56-2.52
		c0.28-1.54-0.42-2.1-1.68-2.1c-1.68,0-2.24,0.84-4.07,4.21H221.91z M227.66,376.49c-2.95,1.26-4.91,0.42-5.61,3.79
		c-0.42,1.82,0.14,2.52,1.4,2.52c1.68,0,3.23-1.82,3.79-4.49L227.66,376.49z"/>
	<path id="XMLID_58_" d="M221.91,375.37l0.42,0.14l0.84-3.93l-0.42-0.14l0.14,0.42c1.26-0.56,2.52-0.84,3.65-0.84
		c1.26,0,2.1,0.28,2.52,0.7c0.56,0.42,0.7,0.84,0.7,1.4c0,0.14,0,0.28,0,0.42l0.42,0.14l-0.42-0.14l-1.96,9.54h1.68v-0.42
		l-0.42-0.14v0.14h-2.38l0.28-1.54l-0.84-0.28c-0.7,1.4-2.38,2.24-3.93,2.24c-0.84,0-1.4-0.28-1.82-0.56
		c-0.42-0.28-0.56-0.84-0.56-1.54c0-0.28,0-0.42,0.14-0.7c0.14-0.98,0.56-1.54,1.12-1.96c0.84-0.7,1.96-0.98,3.23-1.12
		c1.26-0.28,2.52-0.42,3.65-0.98l0.14-0.14l0.56-2.67l0,0c0-0.28,0-0.42,0-0.7c0-0.56-0.28-1.12-0.7-1.54
		c-0.42-0.28-0.98-0.42-1.54-0.42c-0.42,0-0.84,0-1.26,0.28c-0.56,0.28-1.12,0.7-1.54,1.4c-0.42,0.7-0.98,1.54-1.68,2.81l0.42,0.28
		v-0.42h-0.56v0.28l0.42,0.14L221.91,375.37v0.42h0.56h0.28l0.14-0.28c0.98-1.68,1.54-2.67,2.1-3.23c0.28-0.28,0.56-0.42,0.7-0.56
		c0.28-0.14,0.56-0.14,0.98-0.14s0.84,0.14,0.98,0.28c0.14,0.14,0.28,0.42,0.28,0.84c0,0.14,0,0.28,0,0.56l0.42,0.14l-0.42-0.14
		l-0.56,2.52l0.42,0.14l-0.14-0.42c-1.26,0.7-2.95,0.7-4.63,1.12c-0.84,0.14-1.68,0.56-2.38,1.12c-0.7,0.56-1.12,1.4-1.4,2.52
		c0,0.28-0.14,0.56-0.14,0.84c0,0.84,0.28,1.68,0.98,2.24c0.56,0.56,1.4,0.7,2.38,0.7c1.82,0,3.65-1.12,4.63-2.67l-0.42-0.28
		l-0.42-0.14l-0.56,2.67h4.07l0.42-1.4h-1.12l1.68-8.42l0,0c0-0.14,0-0.42,0-0.56c0-0.84-0.28-1.54-0.98-2.1
		c-0.7-0.56-1.68-0.84-3.09-0.84s-2.67,0.42-3.93,0.84l-0.28,0.14l-0.98,4.63h0.56v-0.56H221.91z M227.66,376.49l-0.14-0.42
		c-1.4,0.56-2.67,0.7-3.65,1.12c-0.56,0.14-0.98,0.56-1.4,0.98c-0.42,0.56-0.7,1.12-0.84,2.1l0.42,0.14l-0.42-0.14
		c-0.14,0.42-0.14,0.84-0.14,1.12c0,0.28,0,0.56,0.14,0.84c0.14,0.42,0.42,0.7,0.7,0.84c0.28,0.14,0.7,0.28,1.12,0.28l0,0l0,0
		c0.98,0,1.96-0.56,2.67-1.4s1.26-1.96,1.54-3.37l-0.42-0.14l0.42,0.14l0.56-2.67l-0.84,0.28L227.66,376.49l-0.42-0.14l-0.42,1.82
		l0,0c-0.28,1.26-0.84,2.24-1.4,2.95c-0.56,0.7-1.26,1.12-1.96,1.12v0.42v-0.42c-0.42,0-0.7-0.14-0.84-0.28
		c-0.14,0-0.14-0.14-0.14-0.28s-0.14-0.28-0.14-0.56c0-0.28,0-0.56,0.14-0.98l0,0l0,0c0.14-0.84,0.42-1.4,0.7-1.68
		c0.14-0.28,0.42-0.42,0.7-0.56c0.42-0.28,0.98-0.28,1.68-0.56c0.7-0.14,1.4-0.28,2.38-0.7L227.66,376.49l-0.42-0.14L227.66,376.49z
		"/>
	<path id="XMLID_61_" d="M98.19,361.62c4.63,0,8.7,4.35,8.7,11.08c0,6.73-4.07,11.08-8.7,11.08s-8.7-4.35-8.7-11.08
		C89.49,365.97,93.56,361.62,98.19,361.62z M98.19,383.08c3.37,0,5.05-2.38,5.05-10.38c0-8-1.68-10.38-5.05-10.38
		c-3.37,0-4.91,2.38-4.91,10.38C93.28,380.7,94.83,383.08,98.19,383.08z"/>
	<path id="XMLID_64_" d="M98.19,361.62v0.42c2.24,0,4.21,0.98,5.75,2.81s2.52,4.49,2.52,7.72s-0.98,5.89-2.52,7.72
		s-3.65,2.81-5.75,2.81c-2.24,0-4.21-0.98-5.75-2.81s-2.52-4.49-2.52-7.72s0.98-5.89,2.52-7.72s3.65-2.81,5.75-2.81V361.62v-0.42
		c-2.52,0-4.77,1.12-6.45,3.23c-1.68,1.96-2.81,4.91-2.67,8.28c0,3.51,1.12,6.31,2.81,8.28c1.68,1.96,4.07,3.23,6.45,3.23
		c2.52,0,4.77-1.12,6.45-3.23c1.68-1.96,2.81-4.91,2.81-8.28c0-3.51-1.12-6.31-2.67-8.28c-1.68-1.96-4.07-3.23-6.45-3.23v0.42H98.19
		z M98.19,383.08v0.42c0.84,0,1.68-0.14,2.38-0.56c1.12-0.56,1.82-1.68,2.38-3.37c0.56-1.68,0.7-3.93,0.7-6.87
		c0-4.07-0.42-6.73-1.26-8.42c-0.42-0.84-0.98-1.54-1.82-1.82c-0.7-0.42-1.54-0.56-2.38-0.56c-0.84,0-1.68,0.14-2.38,0.56
		c-1.12,0.56-1.82,1.68-2.24,3.37c-0.42,1.68-0.7,3.93-0.7,6.87c0,4.07,0.42,6.73,1.26,8.42c0.42,0.84,0.98,1.54,1.68,1.82
		c0.7,0.42,1.54,0.56,2.38,0.56L98.19,383.08l0-0.42c-0.84,0-1.4-0.14-1.96-0.42c-0.84-0.42-1.4-1.26-1.82-2.81
		c-0.42-1.54-0.7-3.65-0.7-6.73c0-3.93,0.42-6.45,1.12-8c0.42-0.7,0.84-1.26,1.4-1.54c0.56-0.28,1.12-0.42,1.96-0.42
		c0.84,0,1.4,0.14,1.96,0.42c0.84,0.42,1.54,1.26,1.96,2.81c0.42,1.54,0.7,3.65,0.7,6.73c0,3.93-0.42,6.45-1.26,8
		c-0.42,0.7-0.84,1.26-1.4,1.54c-0.56,0.28-1.26,0.42-1.96,0.42L98.19,383.08L98.19,383.08z"/>
	<path id="XMLID_67_" d="M282.51,383.22v-0.7h1.82v-19.78h-1.82v-0.7h8.84c5.19,0,6.87,2.38,6.87,5.05c0,2.95-2.24,5.05-6.59,5.33
		l7.15,10.1h1.54v0.7h-4.91l-7.57-10.8h-0.14v10.1h2.24v0.7H282.51z M287.7,372h1.68c3.65,0,5.47-1.82,5.47-4.77
		c0-2.1-1.12-4.49-4.49-4.49h-2.67V372z"/>
	<path id="XMLID_70_" d="M282.51,383.22h0.42v-0.28h1.82v-20.62h-1.82v-0.28h-0.42v0.42h8.84c2.52,0,4.21,0.56,5.19,1.4
		c0.98,0.84,1.4,1.96,1.4,3.23c0,1.4-0.56,2.52-1.54,3.37c-0.98,0.84-2.52,1.4-4.77,1.54h-0.84l7.86,10.94h1.4v0.28h0.42v-0.42
		h-4.77l-7.57-10.8h-0.42h-0.42v10.94h2.24v0.28h0.42v-0.42h-7.43L282.51,383.22h0.42H282.51v0.42h8v-1.54h-2.24v-9.68h-0.42v0.42
		h0.14v-0.42l-0.42,0.28l7.72,10.94h5.61v-1.54h-1.82l-7.01-9.82l-0.42,0.28v0.42c2.24-0.14,4.07-0.7,5.19-1.68
		c1.26-0.98,1.82-2.38,1.82-3.93c0-1.4-0.42-2.81-1.68-3.93c-1.12-0.98-3.09-1.68-5.75-1.68h-9.4v1.54h1.82v18.94h-1.82v1.54h0.42
		v-0.56H282.51z M287.7,372v0.42h1.68c1.96,0,3.37-0.42,4.49-1.4c0.98-0.98,1.54-2.24,1.54-3.93c0-1.12-0.28-2.38-1.12-3.23
		c-0.84-0.98-2.1-1.54-3.93-1.54h-3.09v10.1h0.42L287.7,372h0.42v-8.84h2.24c1.54,0,2.52,0.56,3.23,1.26
		c0.56,0.7,0.84,1.68,0.84,2.67c0,1.4-0.42,2.52-1.26,3.23c-0.84,0.7-2.1,1.12-3.79,1.12h-1.68V372h0.42H287.7z"/>
	<path id="XMLID_71_" d="M335.68,375.23c1.26,5.75,2.38,7.72,5.33,7.72c2.81,0,4.91-1.82,4.91-4.49c0-6.03-11.36-3.65-11.36-10.94
		c0-3.65,2.81-6.03,6.87-6.03c2.38,0,4.21,0.56,5.75,1.26v6.03h-0.7l-1.12-3.51c-0.7-2.38-2.24-3.09-4.21-3.09
		c-2.67,0-4.49,1.82-4.49,4.07s1.54,2.95,5.61,4.49c4.49,1.68,6.17,2.81,6.17,6.17c0,3.79-3.23,6.73-8,6.73
		c-1.68,0-4.21-0.84-5.61-1.68v-6.73H335.68z"/>
	<path id="XMLID_72_" d="M335.68,375.23l-0.42,0.14c0.7,2.81,1.26,4.77,2.1,6.17c0.42,0.7,0.98,1.12,1.54,1.54
		c0.56,0.28,1.26,0.42,2.1,0.42c1.54,0,2.81-0.56,3.79-1.4c0.98-0.84,1.54-2.1,1.54-3.51c0-0.84-0.14-1.54-0.56-2.1
		c-0.56-0.98-1.68-1.68-2.81-2.24c-1.68-0.84-3.79-1.4-5.33-2.24c-0.84-0.42-1.4-0.98-1.96-1.68c-0.42-0.7-0.7-1.54-0.7-2.67
		c0-1.68,0.7-3.09,1.82-4.07c1.12-0.98,2.81-1.54,4.77-1.54c2.38,0,4.07,0.56,5.61,1.12l0.14-0.42h-0.42v5.61h-0.28v0.42l0.42-0.14
		l-1.12-3.51l-0.42,0.14l0.42-0.14c-0.42-1.26-0.98-2.1-1.82-2.67c-0.84-0.56-1.82-0.7-2.81-0.7c-1.4,0-2.67,0.42-3.51,1.26
		c-0.84,0.84-1.4,1.96-1.4,3.23c0,0.56,0.14,1.12,0.42,1.68c0.42,0.7,0.98,1.26,1.96,1.68c0.98,0.42,2.1,0.98,3.65,1.54
		c2.24,0.84,3.79,1.54,4.63,2.38c0.42,0.42,0.7,0.84,0.98,1.4c0.14,0.56,0.28,1.12,0.28,1.96c0,1.82-0.7,3.37-2.1,4.49
		c-1.26,1.12-3.23,1.82-5.61,1.82c-0.84,0-1.82-0.14-2.81-0.56c-0.98-0.28-1.96-0.7-2.67-1.12l-0.28,0.42h0.42v-6.31h0.28v-0.42
		l-0.42,0.14L335.68,375.23v-0.42h-0.7h-0.42v7.43l0.14,0.14c0.7,0.56,1.82,0.98,2.81,1.26c1.12,0.28,2.1,0.56,3.09,0.56
		c2.52,0,4.63-0.7,6.17-1.96c1.54-1.26,2.38-3.09,2.38-5.19c0-0.84-0.14-1.68-0.42-2.24c-0.42-0.98-1.12-1.82-2.1-2.38
		c-0.98-0.7-2.38-1.26-4.07-1.82c-2.1-0.84-3.51-1.26-4.21-1.96c-0.42-0.28-0.7-0.56-0.84-0.84s-0.28-0.7-0.28-1.26
		c0-0.98,0.42-1.82,1.12-2.52c0.7-0.7,1.68-1.12,2.95-1.12c0.98,0,1.68,0.14,2.38,0.56c0.56,0.42,1.12,1.12,1.4,2.24l0,0l1.26,3.79
		h1.4v-6.87l-0.28-0.14c-1.54-0.7-3.51-1.26-6.03-1.26c-2.1,0-3.93,0.7-5.33,1.82c-1.26,1.12-2.1,2.81-2.1,4.77s0.84,3.23,1.96,4.21
		c1.68,1.4,4.07,2.1,6.03,2.95c0.98,0.42,1.82,0.84,2.38,1.54c0.56,0.56,0.98,1.26,0.98,2.38s-0.42,2.1-1.26,2.95
		c-0.84,0.7-1.96,1.12-3.23,1.12c-0.7,0-1.26-0.14-1.68-0.42c-0.7-0.42-1.26-0.98-1.82-2.24c-0.56-1.12-0.98-2.81-1.4-4.91
		l-0.14-0.28h-0.42v0.14H335.68z"/>
	<path id="XMLID_75_" d="M366.26,361.62c4.63,0,8.7,4.35,8.7,11.08c0,6.73-4.07,11.08-8.7,11.08c-4.49,0-8.7-4.35-8.7-11.08
		C357.56,365.97,361.77,361.62,366.26,361.62z M366.26,383.08c3.37,0,5.05-2.38,5.05-10.38c0-8-1.68-10.38-5.05-10.38
		c-3.37,0-4.91,2.38-4.91,10.38C361.35,380.7,362.89,383.08,366.26,383.08z"/>
	<path id="XMLID_78_" d="M366.26,361.62v0.42c2.24,0,4.21,0.98,5.75,2.81s2.52,4.49,2.52,7.72s-0.98,5.89-2.52,7.72
		c-1.54,1.82-3.65,2.81-5.75,2.81c-2.1,0-4.21-0.98-5.75-2.81c-1.54-1.82-2.52-4.49-2.52-7.72s0.98-5.89,2.52-7.72
		s3.65-2.81,5.75-2.81V361.62v-0.42c-2.38,0-4.77,1.12-6.45,3.23c-1.68,1.96-2.81,4.91-2.81,8.28c0,3.51,1.12,6.31,2.81,8.28
		c1.68,1.96,4.07,3.23,6.45,3.23c2.52,0,4.77-1.12,6.45-3.23c1.68-1.96,2.81-4.91,2.67-8.28c0-3.51-1.12-6.31-2.67-8.28
		c-1.68-1.96-3.93-3.23-6.45-3.23V361.62z M366.26,383.08v0.42c0.84,0,1.68-0.14,2.38-0.56c1.12-0.56,1.82-1.68,2.38-3.37
		c0.56-1.68,0.7-3.93,0.7-6.87c0-4.07-0.42-6.73-1.26-8.42c-0.42-0.84-0.98-1.54-1.82-1.82c-0.7-0.42-1.54-0.56-2.38-0.56
		c-0.84,0-1.68,0.14-2.38,0.56c-1.12,0.56-1.82,1.68-2.24,3.37c-0.42,1.68-0.7,3.93-0.7,6.87c0,4.07,0.42,6.73,1.26,8.42
		c0.42,0.84,0.98,1.54,1.68,1.82c0.7,0.42,1.54,0.56,2.38,0.56L366.26,383.08l0-0.42c-0.84,0-1.4-0.14-1.96-0.42
		c-0.84-0.42-1.4-1.26-1.82-2.81c-0.42-1.54-0.7-3.65-0.7-6.73c0-3.93,0.42-6.45,1.12-8c0.42-0.7,0.84-1.26,1.4-1.54
		c0.56-0.28,1.12-0.42,1.96-0.42c0.84,0,1.4,0.14,1.96,0.42c0.84,0.42,1.54,1.26,1.96,2.81c0.42,1.54,0.7,3.65,0.7,6.73
		c0,3.93-0.42,6.45-1.26,8c-0.42,0.7-0.84,1.26-1.4,1.54c-0.56,0.28-1.26,0.42-1.96,0.42L366.26,383.08L366.26,383.08z"/>
	<path id="XMLID_81_" d="M383.65,383.22v-0.7h1.82v-19.78h-1.82v-0.7h8.84c5.05,0,6.87,2.38,6.87,5.05c0,2.95-2.38,5.05-6.73,5.33
		l7.29,10.1h1.4v0.7h-4.77l-7.72-10.8h-0.14v10.1h2.38v0.7H383.65z M388.84,372h1.82c3.65,0,5.33-1.82,5.33-4.77
		c0-2.1-0.98-4.49-4.35-4.49h-2.81L388.84,372L388.84,372z"/>
	<path id="XMLID_84_" d="M383.65,383.22h0.42v-0.28h1.82v-20.62h-1.82v-0.28h-0.42v0.42h8.84c2.52,0,4.07,0.56,5.05,1.4
		s1.4,1.96,1.4,3.23c0,1.4-0.56,2.52-1.54,3.37c-1.12,0.84-2.67,1.4-4.77,1.54h-0.84l8,10.94h1.26v0.28h0.42v-0.42h-4.63l-7.72-10.8
		h-0.42h-0.42v10.94h2.38v0.28h0.42v-0.42h-7.43V383.22h0.42H383.65v0.42h8v-1.54h-2.38v-9.68h-0.42v0.42h0.14v-0.42l-0.42,0.28
		l7.86,10.94h5.47v-1.54h-1.68l-7.15-9.82l-0.42,0.28v0.42c2.24-0.14,4.07-0.7,5.33-1.68s1.96-2.38,1.96-3.93
		c0-1.4-0.56-2.81-1.68-3.93c-1.26-0.98-3.09-1.68-5.61-1.68h-9.4v1.54h1.82v18.94h-1.82v1.54h0.42L383.65,383.22L383.65,383.22z
		 M388.84,372v0.42h1.82c1.96,0,3.37-0.42,4.35-1.4s1.4-2.24,1.4-3.79c0-1.12-0.28-2.38-0.98-3.23c-0.7-0.98-1.96-1.54-3.79-1.54
		h-3.23v10.1h0.42L388.84,372h0.42v-8.84h2.38c1.54,0,2.52,0.56,3.09,1.26c0.56,0.7,0.84,1.68,0.84,2.81c0,1.4-0.42,2.52-1.12,3.23
		c-0.84,0.7-1.96,1.12-3.79,1.12h-1.82V372h0.42H388.84z"/>
	<path id="XMLID_85_" d="M411.98,382.52h2.38v-19.78h-2.1c-1.26,0-1.68,0.28-2.81,6.03h-0.7v-6.73h14.59v6.73h-0.7
		c-1.26-5.75-1.54-6.03-2.95-6.03h-1.96v19.78h2.24v0.7h-7.86v-0.7H411.98z"/>
	<path id="XMLID_86_" d="M411.98,382.52v0.42h2.81v-20.62h-2.52c-0.28,0-0.7,0-0.98,0.14c-0.28,0.14-0.42,0.28-0.7,0.56
		c-0.28,0.42-0.56,0.98-0.7,1.96c-0.28,0.84-0.56,2.1-0.84,3.65l0.42,0.14v-0.42h-0.28v-5.75h13.75v5.89h-0.28v0.42l0.42-0.14
		c-0.7-2.95-0.98-4.35-1.4-5.33c-0.28-0.42-0.56-0.7-0.84-0.98c-0.42-0.14-0.7-0.14-1.12-0.14h-2.38v20.62h2.24v0.28h0.42v-0.42
		h-7.43v-0.28H411.98v0.42V382.52h-0.42v0.7v0.42h8.84v-1.54h-2.24v-18.94h1.54c0.28,0,0.56,0,0.7,0.14c0.14,0,0.14,0.14,0.28,0.28
		c0.14,0.28,0.42,0.84,0.7,1.68c0.28,0.84,0.56,1.96,0.84,3.65l0.14,0.28h1.54v-7.57h-15.43v7.57h1.54v-0.42
		c0.56-2.81,0.98-4.35,1.26-5.05c0.14-0.42,0.28-0.42,0.42-0.56c0.14,0,0.28-0.14,0.56-0.14h1.68v18.94h-2.38v0.42h0.42V382.52z"/>
	<path id="XMLID_87_" d="M433.59,375.23c1.26,5.75,2.38,7.72,5.33,7.72c2.81,0,4.91-1.82,4.91-4.49c0-6.03-11.36-3.65-11.36-10.94
		c0-3.65,2.81-6.03,6.87-6.03c2.24,0,4.21,0.56,5.75,1.26v6.03h-0.7l-1.12-3.51c-0.7-2.38-2.24-3.09-4.21-3.09
		c-2.67,0-4.63,1.82-4.63,4.07s1.68,2.95,5.75,4.49c4.49,1.68,6.03,2.81,6.03,6.17c0,3.79-3.23,6.73-7.86,6.73
		c-1.68,0-4.21-0.84-5.61-1.68v-6.73H433.59z"/>
	<path id="XMLID_88_" d="M433.59,375.23l-0.42,0.14c0.7,2.81,1.26,4.77,2.1,6.17c0.42,0.7,0.98,1.12,1.54,1.54
		c0.56,0.28,1.26,0.42,2.1,0.42c1.54,0,2.81-0.56,3.79-1.4c0.98-0.84,1.54-2.1,1.54-3.51c0-0.84-0.14-1.54-0.56-2.1
		c-0.56-0.98-1.68-1.68-2.81-2.24c-1.68-0.84-3.79-1.4-5.33-2.24c-0.84-0.42-1.4-0.98-1.96-1.68c-0.42-0.7-0.7-1.54-0.7-2.67
		c0-1.68,0.7-3.09,1.82-4.07c1.12-0.98,2.81-1.54,4.77-1.54c2.24,0,4.07,0.56,5.61,1.12l0.14-0.42h-0.42v5.61h-0.28v0.42l0.42-0.14
		l-1.12-3.51l-0.42,0.14l0.42-0.14c-0.42-1.26-0.98-2.1-1.82-2.67c-0.84-0.56-1.82-0.7-2.81-0.7c-1.4,0-2.67,0.42-3.65,1.26
		s-1.54,1.96-1.54,3.23c0,0.56,0.14,1.12,0.42,1.68c0.42,0.7,1.12,1.26,1.96,1.68c0.98,0.42,2.1,0.98,3.65,1.54
		c2.24,0.84,3.79,1.54,4.63,2.38c0.42,0.42,0.7,0.84,0.98,1.4c0.14,0.56,0.28,1.26,0.28,1.96c0,1.82-0.7,3.37-2.1,4.49
		c-1.26,1.12-3.23,1.82-5.47,1.82c-0.84,0-1.82-0.14-2.81-0.56c-0.98-0.28-1.96-0.7-2.67-1.12l-0.28,0.42h0.42v-6.31h0.28v-0.42
		l-0.42,0.14L433.59,375.23v-0.42h-0.7h-0.42v7.43l0.14,0.14c0.7,0.56,1.82,0.98,2.81,1.26c1.12,0.28,2.1,0.56,3.09,0.56
		c2.38,0,4.49-0.7,6.03-1.96c1.54-1.26,2.38-3.09,2.38-5.19c0-0.84-0.14-1.68-0.28-2.24c-0.42-0.98-0.98-1.82-1.96-2.52
		c-0.98-0.7-2.24-1.26-4.07-1.82c-2.1-0.84-3.51-1.26-4.35-1.96c-0.42-0.28-0.7-0.56-0.84-0.84c-0.14-0.28-0.28-0.7-0.28-1.26
		c0-0.98,0.42-1.82,1.12-2.52c0.7-0.7,1.82-1.12,3.09-1.12c0.98,0,1.68,0.14,2.38,0.56c0.56,0.42,1.12,1.12,1.4,2.24l0,0l1.26,3.79
		h1.4v-6.73l-0.28-0.14c-1.54-0.7-3.65-1.26-6.03-1.26c-2.1,0-3.93,0.7-5.33,1.82c-1.26,1.12-2.1,2.81-2.1,4.77s0.84,3.23,1.96,4.21
		c1.68,1.4,4.07,2.1,6.03,2.95c0.98,0.42,1.82,0.84,2.38,1.54c0.56,0.56,0.98,1.26,0.98,2.38s-0.42,2.1-1.26,2.95
		c-0.84,0.7-1.96,1.12-3.23,1.12c-0.7,0-1.26-0.14-1.68-0.42c-0.7-0.42-1.26-0.98-1.82-2.24c-0.56-1.12-0.98-2.81-1.4-4.91
		l-0.14-0.28h-0.42v0.14H433.59z"/>
	<path id="XMLID_89_" d="M308.04,383.22v-0.7h1.82v-19.78h-1.82v-0.7h15.43v6.73h-0.56c-1.68-5.75-2.24-6.17-3.65-6.17h-6.03v9.12
		h2.38c1.54,0,2.24-0.98,2.81-4.21h0.7v9.12h-0.7c-0.56-3.23-1.26-4.21-2.81-4.21h-2.38v9.96h5.33c2.1,0,2.81-0.84,4.63-7.15h0.56
		v7.86h-15.71V383.22z"/>
	<path id="XMLID_90_" d="M308.04,383.22h0.42v-0.28h1.82v-20.62h-1.82v-0.28h-0.42v0.42h15.01v5.89h-0.14v0.42l0.42-0.14
		c-0.84-2.81-1.4-4.35-1.96-5.33c-0.28-0.42-0.56-0.7-0.98-0.98c-0.42-0.14-0.7-0.14-1.12-0.14h-6.45v10.1h2.81
		c0.42,0,0.84,0,1.26-0.28c0.56-0.28,0.98-0.7,1.26-1.4c0.28-0.7,0.56-1.68,0.7-2.81l-0.42-0.14v0.42h0.28v8.28h-0.28v0.42
		l0.42-0.14c-0.28-1.68-0.56-2.81-1.12-3.51c-0.28-0.42-0.56-0.7-0.98-0.84c-0.42-0.14-0.84-0.28-1.26-0.28h-2.81v10.8h5.75
		c0.56,0,1.12,0,1.54-0.28c0.42-0.14,0.7-0.42,0.98-0.7c0.84-0.98,1.54-2.81,2.52-6.45l-0.42-0.14v0.42h0.14v6.87H307.9v0.7h0.42
		H308.04v0.42h16.13v-8.7h-1.4l-0.14,0.28c-0.98,3.09-1.54,4.91-2.1,5.75c-0.28,0.42-0.56,0.7-0.84,0.84
		c-0.28,0.14-0.7,0.14-1.12,0.14h-4.91v-9.12h1.96c0.28,0,0.56,0,0.84,0.14c0.28,0.14,0.56,0.42,0.84,0.98
		c0.28,0.56,0.56,1.4,0.7,2.67v0.42h1.54v-9.96H318v0.42c-0.28,1.54-0.56,2.67-0.98,3.23c-0.14,0.28-0.42,0.42-0.56,0.56
		c-0.28,0.14-0.42,0.14-0.84,0.14h-1.96v-8.28h5.61c0.28,0,0.56,0,0.7,0.14c0.14,0,0.28,0.14,0.42,0.42c0.56,0.56,1.12,2.1,2.1,5.33
		l0.14,0.28h0.84h0.42v-7.72h-16.27v1.54h1.82v18.94h-1.82v1.54h0.42L308.04,383.22L308.04,383.22z"/>
	<path id="XMLID_91_" class="st0" d="M283.35,184.17c-8.28,3.09-20.06,8.42-27.07,17.53c-0.7,0.98-1.82,1.12-2.81-0.14
		c-1.96-2.38-11.92-12.62-25.81-12.62c-3.37,0-8.56,0.84-12.2,1.96c0,4.91,0,23.85,0,34.23c2.24-1.54,6.87-3.23,11.64-3.23
		c7.01,0,20.76,6.03,25.67,10.66c1.82,1.68,3.23,1.54,4.77,0c7.29-7.15,20.48-13.47,37.03-13.33c0-5.89,0-41.8,0-41.8
		s-61.02,0-67.75,0c8.28-3.09,20.06-8.42,26.93-17.53c0.84-0.98,1.96-1.12,2.95,0.14c1.96,2.38,11.92,12.62,25.67,12.62
		c3.51,0,8.7-0.84,12.2-1.96c0-4.91,0-23.85,0-34.23c-2.1,1.54-6.87,3.23-11.64,3.23c-6.87,0-20.62-6.17-25.53-10.66
		c-1.82-1.68-3.23-1.54-4.91,0c-7.29,7.15-20.34,13.47-36.89,13.33c0,5.89,0,41.8,0,41.8S276.62,184.17,283.35,184.17"/>
	<rect id="XMLID_92_" y="335.53" width="510.74" height="1.82"/>
</g>
</svg>
