<?xml version="1.0" encoding="utf-8"?>
<!-- Generator: Adobe Illustrator 27.0.0, SVG Export Plug-In . SVG Version: 6.00 Build 0)  -->
<svg version="1.1" id="Layer_1" xmlns="http://www.w3.org/2000/svg" xmlns:xlink="http://www.w3.org/1999/xlink" x="0px" y="0px"
	 viewBox="0 0 512 512" style="enable-background:new 0 0 512 512;" xml:space="preserve">
<style type="text/css">
	.st0{fill:#3BA4FF;}
	.st1{fill:#FFFFFF;}
</style>
<g>
	<path class="st0" d="M114.38,0h283.34C460.8,0,512,51.2,512,114.38v283.34C512,460.8,460.8,512,397.62,512H114.38
		C51.2,512,0,460.8,0,397.62V114.38C0,51.2,51.2,0,114.38,0z"/>
	<path class="st1" d="M256,66.76c31.44,0,57.04,25.5,57.04,57.04c0,31.44-25.5,57.04-57.04,57.04c-31.44,0-57.04-25.5-57.04-57.04
		C198.96,92.26,224.56,66.76,256,66.76z"/>
	<path class="st1" d="M381.34,283.75c31.44,0,57.04,25.5,57.04,57.04c0,31.44-25.5,57.04-57.04,57.04s-57.04-25.5-57.04-57.04
		C324.4,309.35,349.9,283.75,381.34,283.75z"/>
	<path class="st1" d="M131.38,283.75c31.44,0,57.04,25.5,57.04,57.04c0,31.44-25.5,57.04-57.04,57.04
		c-31.44,0-57.04-25.5-57.04-57.04C74.34,309.35,99.84,283.75,131.38,283.75z"/>
	<path class="st1" d="M134.25,247.71c-0.1-50.07,19.46-98.2,54.48-133.94l0.2-1.23c-66.76,29.8-106.09,99.94-96.56,172.44
		c11.37-7.99,24.99-12.29,39.01-12.29c1.54,0,3.07,0,4.61,0.2C134.86,264.6,134.25,256.2,134.25,247.71z"/>
	<path class="st1" d="M318.67,367.1c-44.34,32.56-100.45,44.54-154.11,33.08l-0.51,0.31c55.81,37.38,128.61,37.38,184.32-0.2
		C335.05,392.81,324.61,381.13,318.67,367.1z"/>
	<path class="st1" d="M314.57,158.31c51.81,24.37,90.01,70.45,104.35,125.85l0.72,0.41c9.32-72.4-30-142.23-96.56-171.93
		c0.61,3.69,0.92,7.48,0.92,11.16C323.99,135.88,320.82,147.87,314.57,158.31z"/>
</g>
</svg>
