<?xml version="1.0" encoding="utf-8"?>
<!-- Generator: Adobe Illustrator 27.0.0, SVG Export Plug-In . SVG Version: 6.00 Build 0)  -->
<svg version="1.1" id="Layer_1" xmlns="http://www.w3.org/2000/svg" xmlns:xlink="http://www.w3.org/1999/xlink" x="0px" y="0px"
	 viewBox="0 0 512 512" style="enable-background:new 0 0 512 512;" xml:space="preserve">
<style type="text/css">
	.st0{fill:#FFFFFF;}
	.st1{fill:#007042;}
	.st2{fill:#FCFDFD;}
</style>
<g id="XMLID_25_">
	<path id="XMLID_27_" class="st0" d="M510.69,256c0,141.32-114.1,256-254.69,256S1.31,397.32,1.31,256S115.41,0,256,0
		C396.73,0,510.69,114.68,510.69,256"/>
	<path id="XMLID_42_" class="st1" d="M253.82,90.96c9.02,5.24,18.48,11.79,25.76,18.92l-2.91,2.91c-14.26-1.46-29.4,0.44-42.93,0.58
		c-1.46-1.46-4.51-3.78-1.75-5.68L253.82,90.96 M506.47,268.52c0.15,6.4,0.73,11.93-1.75,18.63c-13.68,3.93-24.89-1.89-36.09-7.57
		c-10.19-5.24-20.38-10.48-32.45-8.44l2.91,14.26c23.43,0.73,38.13,23.29,62.29,22.27c-3.49,6.84,1.6,25.03-13.68,17.76
		c-15.86-3.78-27.22-17.76-44.53-17.76c-2.04,3.78-0.73,9.17-1.16,13.68c18.34,2.91,31.44,18.34,49.77,21.1
		c-1.75,6.26-3.49,13.24-8.59,17.17c-14.84-3.64-26.49-17.03-42.35-16.59l-2.77,13.1c14.99,0.44,24.74,13.68,38.28,17.76
		c0.44,5.53-4.66,10.48-7.42,15.43c-11.93-3.64-21.1-13.97-34.93-13.1c-0.15-5.09,2.91-11.06,1.75-16.59
		c-15.43,4.51-25.76-9.75-37.11-18.34c-0.29-28.09-29.84-46.57-31.44-72.77c-0.29-5.24,0.44-10.92,2.91-16.88
		c9.75-22.41,6.69-51.67-3.93-72.62c-3.2-5.53-9.02-9.9-14.26-13.1c7.86,16.59,17.32,36.24,12.66,56.61
		c-0.58,15.72-9.9,30.85-9.9,45.99c0,5.38,1.16,10.77,4.22,16.3c12.37,22.27,34.64,43.37,26.34,71.46
		c-2.33,8.59-9.17,15.28-10.92,24.01c14.55,11.93,28.23,25.47,47.45,26.34c6.84-4.37,3.06-23.72,17.17-14.84l20.52,10.33
		c-1.46,5.53-6.11,10.48-10.33,14.26c-7.86-3.78-15.43-8.3-25.18-8c-2.91,3.06-5.38,6.4-5.09,10.77c6.84,1.16,13.1,4.08,18.92,8
		c-2.62,5.68-7.86,9.31-12.66,13.68l-16.01-5.68c-2.62,3.78-8.15,7.86-6.26,12.08c3.64,1.6,7.57,3.64,10.19,6.26
		c-6.99,7.57-16.01,12.52-24.6,17.76c-7.42-24.16-31.87-41.19-29.69-69.13l-1.16-1.16c-5.68,6.4-3.78,16.74-3.49,25.18
		c6.84,17.46,23.29,31,25.76,50.36c-2.91,4.95-9.31,5.97-14.26,8c0.58-34.64-51.96-60.98-18.34-96.05
		c11.21-17.17,30.13-33.62,23.43-57.2c-6.84-22.85-31.14-36.97-30.85-62.58v-2.04c5.53-26.63,22.27-55.01,8.59-83.39
		c-3.78-11.35-12.37-24.45-24.01-29.11c17.32,19.79,24.16,52.25,14.26,78.88c-4.95,10.62-11.93,23.29-12.52,35.8l0,0
		c-0.44,6.55,1.02,12.95,5.09,19.21c13.1,21.39,35.95,44.83,22.85,72.62c-14.84,22.27-40.75,44.97-26.34,74.22
		c10.48,17.46,26.63,35.07,22.27,56.61l-17.17,5.68c11.5-40.17-44.53-63.75-21.1-104.06c14.41-21.54,40.31-41.77,25.76-70.29
		c-8.73-17.76-26.92-28.23-26.34-50.36l0.58-3.78c5.97-31.44,29.69-61.13,13.1-94.6c-4.37-9.9-13.1-19.94-22.85-25.76l-0.58,0.58
		c19.5,18.92,25.32,49.92,14.84,74.81c-4.95,14.7-15.57,29.25-17.76,44.83c-1.02,7.42-0.15,14.99,4.08,23.14
		c12.37,19.65,34.06,40.46,20.52,65.78c-14.26,20.96-38.13,41.33-28.53,68.55c10.48,23.87,32.31,46.57,20.52,76.12l-17.76,3.93
		c14.12-28.82-6.99-57.34-19.36-82.37c-14.99-35.8,32.31-52.98,33.18-85.72c-0.15-21.1-22.7-33.18-27.36-52.54
		c-5.82-4.8-11.64-2.77-17.9-0.73c-4.37,1.46-8.88,2.77-13.53,1.89c-3.06,0.58-6.55-0.73-10.19-1.89
		c-6.69-2.33-13.39-4.66-16.74,4.8c-6.11,21.54-33.91,37.4-21.69,62.87c11.64,22.7,39.59,39.3,30.27,68.55
		c-8.3,27.36-35.95,53.56-18.92,85.14c-6.99-2.33-20.23,2.04-19.94-9.17c-10.92-38.28,35.37-60.54,21.1-98.82
		c-6.69-23.43-36.97-36.38-30.27-64.62c4.95-23.14,31-39.44,27.36-64.91c-0.29-2.18-0.87-4.37-1.6-6.55
		c-9.75-27.36-29.54-54.87-17.76-86.89c3.2-9.17,9.75-16.88,15.43-25.18c-18.92,10.04-28.38,31.44-27.94,53.12
		c-0.87,23.58,16.59,43.81,19.07,65.49c1.02,8.73-0.44,17.61-6.55,27.07c-12.37,16.74-28.53,34.49-21.1,56.61
		c6.99,22.27,34.93,35.8,33.18,61.71c-0.15,30.71-35.8,49.77-25.76,83.98l-17.76-5.82c-6.99-30.42,25.32-45.99,25.76-74.22
		c4.51-32.45-36.82-44.39-34.35-76.12c-0.15-24.01,20.96-39.15,30.27-59.38c1.6-4.95,2.18-9.61,1.89-13.97
		c-1.16-22.27-21.25-39.73-17.9-64.91c1.16-18.48,7.42-34.64,19.36-48.61c-16.59,6.69-23.43,25.76-27.94,41.77
		c-8,25.61,11.06,48.75,12.95,71.75c0.87,10.19-1.6,20.23-11.21,30.56c-13.68,16.15-27.65,36.53-17.76,58.36
		c10.48,24.01,43.52,42.64,29.11,72.62c-7.86,18.92-26.49,33.18-25.76,55.45c-4.95-2.04-10.04-4.22-14.26-8
		c0-28.38,40.31-46.14,21.1-75.97c-1.75,5.97-2.04,13.97-3.35,20.52c-6.69,17.32-20.96,31.29-26.34,49.19
		c-8.88-3.49-18.34-10.62-25.76-18.34l10.33-6.26c-1.16-3.78-4.22-6.99-6.84-10.33c-6.69-0.87-11.06,3.49-16.59,5.09
		c-4.8-4.22-9.31-8-13.1-13.1c3.35-9.75,30.13-1.75,16.59-17.76c-9.17-5.68-18.34,2.47-26.34,6.26l-10.92-13.68
		c9.31-5.68,18.63-13.68,30.27-11.5c2.91,5.09,3.06,12.66,8.59,15.43c19.65-0.44,33.47-15.28,48.61-26.78
		c-10.48-15.57-19.07-37.11-9.75-56.03c7.42-18.92,26.92-34.78,27.8-55.74c0.15-4.8-0.58-9.75-2.62-15.14
		c-10.33-26.49-13.97-62.29,5.68-85.72c-10.62,2.91-17.03,16.15-20.52,26.2c-11.79,25.91,3.06,49.77,3.64,74.66
		c0,4.51-0.29,8.88-1.31,13.39c-10.04,20.38-26.49,38.28-29.11,61.71c-11.64,7.42-21.1,20.38-37.69,16.01
		c-0.58,4.37,0.73,11.06,2.33,16.01c-13.1-0.58-22.12,9.17-33.18,13.68c-5.82-1.89-7.42-9.46-9.75-14.84
		c12.95-4.37,22.27-17.32,37.11-17.17c1.75-4.8-1.02-9.17-1.75-13.68c-7.13-3.2-15.86,2.18-24.01,7.42
		c-13.1,8.44-24.74,16.88-26.2-9.17c18.48-1.16,30.27-18.34,48.61-19.94l0.58-13.68c-10.33-1.02-18.92,3.78-27.51,8.59
		s-17.03,9.61-27.51,8.59l-4.51-18.34c24.01,1.46,38.28-20.08,61.13-21.1c3.06-3.93,3.35-9.9,3.93-15.43
		c-11.5-1.46-21.39,3.64-31.29,8.73c-11.5,5.97-22.99,11.79-37.26,7.28c0,0-0.87-11.5-1.46-18.05l0,0C4.22,265.9,4.08,264,4.08,264
		c23.58,9.17,44.39-7.86,64.62-16.59c5.09-1.6,13.1,1.16,15.43-4.51c-0.15-4.37,7.86-9.46,1.16-12.52
		c-12.81-1.75-23.72,3.93-34.49,9.61c-14.12,7.42-27.8,14.99-44.97,5.68l-2.33-4.51C9.75,155,58.36,71.9,138.84,30.85
		c32.75-18.48,73.35-27.94,114.25-28.38c49.34-0.44,99.26,12.52,136.22,38.71c35.95,22.12,70.44,58.51,89.21,95.47
		c17.9,32.31,26.05,68.69,28.53,107.41c-17.32,13.1-31.44,4.8-45.99-3.35c-11.79-6.55-23.87-13.24-37.99-8.59
		c1.75,4.95,2.62,10.04,6.26,14.26c11.79-0.15,22.12,5.09,32.16,10.19c13.97,7.13,27.8,14.26,44.97,7.42L506.47,268.52
		 M147.57,162.42c-19.79-12.95-44.97-0.73-63.45,6.26c-1.75-17.32-8.73-33.18-23.43-44.53c-1.46-0.73-3.35-2.18-5.24-2.33
		c-1.02,0-2.04,0.29-2.91,1.75c6.69,40.9-19.94,69.57-38.86,100.57c6.26,5.09,16.3,4.37,24.01,2.91c19.94-8,39-21.98,62.87-17.17
		c6.99-11.93,18.92-23.58,28.53-33.18C135.2,171.59,143.35,168.39,147.57,162.42 M208.12,188.18c-0.44,2.47,0.15,6.84,3.93,5.09
		c5.97-8.15,16.45-1.75,22.85-1.16v-2.33c-3.49-5.53-10.92-8.44-18.34-8.15c-1.75,0-3.49,0.29-5.09,0.73
		C209.14,183.09,207.39,185.27,208.12,188.18 M301.26,163.58c-5.38-11.79-17.46-16.59-28.53-19.5c-5.38-0.73-11.06-1.16-16.59-1.16
		c-1.02,0-2.04,0-3.2,0c-15.57,0.29-30.56,4.37-39.59,17.17c-1.31,3.64-7.13,8.73-1.75,11.93c11.93-0.73,25.76-2.33,33.76,8
		c0,9.17,5.97,21.39-3.93,25.76c-4.22-3.93-9.02-2.91-13.68-1.89c-4.37,1.02-8.88,1.89-13.1-1.02c-4.22-2.47-6.84,0.44-8.59,4.08
		c-2.47,23.58,9.9,49.63,32.02,62.87c9.02,3.2,20.96,6.26,30.27,1.75c22.41-10.48,31.73-34.49,35.95-56.61
		c-0.58-4.22-0.29-12.37-6.26-12.66c-6.69,4.22-16.45,1.75-23.43,0c-4.22,1.31-4.37,7.42-9.17,8.59l-2.91-2.33
		c-2.47-10.48-4.08-25.32,5.68-32.6c10.92-4.37,23.58-6.26,34.93-2.91C305.05,169.7,301.84,166.93,301.26,163.58 M289.76,182.36
		c-0.73,0-1.46,0-2.18,0.15c-3.93,2.62-15.57,0.73-11.5,9.75c7.28-5.68,17.32-1.75,24.6,1.16c2.62-1.31,2.04-3.93,2.33-6.26
		C300.68,182.65,295.15,182.36,289.76,182.36 M372.72,101.88c-14.12-0.73-25.91,7.28-38.86,10.92c-1.16-11.06,7.28-22.7,9.17-33.76
		c-20.96,1.31-37.55,13.97-54.87,24.01c-4.08-9.75-8-19.5-12.08-29.11l22.85-21.69l0.58-2.91l-30.85-1.75
		c-5.38-9.31-7.42-20.52-13.68-29.11c-5.09,9.75-8.59,19.94-13.68,29.69l-30.85,1.75v2.33l23.43,21.1
		c-2.91,10.92-5.53,22.7-12.52,30.85c-13.68-8.15-27.22-17.17-42.21-22.85c-3.64-1.16-8.73-3.06-12.08-0.58
		c4.8,10.48,11.35,21.69,10.33,33.18c-6.26-1.16-11.21-5.24-17.17-6.84c-7.13-1.89-15.43-5.68-22.27-3.35
		c11.5,16.01,20.81,32.75,24.01,51.96c37.99-18.34,82.08-28.38,128.07-20.52c21.54,3.49,41.33,12.23,60.54,19.36
		C351.18,134.33,363.99,118.03,372.72,101.88 M437.92,211.61c19.36,5.09,38.86,26.34,59.38,12.52
		c-17.9-29.69-44.53-57.2-37.11-96.05c0.73-2.62-0.87-5.38-3.35-5.68c-11.64,4.8-20.67,16.15-25.18,27.51
		c-1.89,6.69-3.06,13.68-5.68,19.94c-13.97-7.28-28.82-14.26-45.7-12.52c-6.11,0.73-14.84,1.16-16.01,7.42
		c19.21,10.33,35.07,27.51,46.86,45.7C419.29,209.14,429.33,210.3,437.92,211.61 M234.46,238.39l0.58,3.49
		c7.42,4.95,9.75,13.39,20.08,12.66c9.17,0.58,16.01-8,20.52-14.84c-5.97-0.87-12.37-0.58-19.07-0.44
		C249.16,239.41,241.59,239.55,234.46,238.39 M244.79,223.11c0.44,1.46-0.87,3.78,1.16,4.51c2.04-0.44,4.66-0.29,7.28,0
		c5.38,0.44,11.06,0.87,13.24-3.93c-2.33-2.62-6.26-3.93-10.33-3.93S247.85,220.93,244.79,223.11"/>
	<path id="XMLID_48_" class="st0" d="M245.81,227.62c-2.04-0.73-0.73-3.06-1.16-4.51c3.06-2.04,7.28-3.35,11.35-3.35
		s8,1.16,10.33,3.93c-1.6,3.49-4.95,4.22-8.73,4.22c-1.46,0-3.06-0.15-4.51-0.29c-1.46-0.15-3.06-0.29-4.37-0.29
		C247.7,227.33,246.69,227.47,245.81,227.62 M276.23,216.41h-41.77v17.17h41.77V216.41"/>
	<path id="XMLID_49_" class="st2" d="M256.15,219.76c-4.08,0-8.3,1.16-11.35,3.35c0.44,1.46-0.87,3.78,1.16,4.51
		c0.87-0.15,1.89-0.29,2.91-0.29c1.31,0,2.91,0.15,4.37,0.29c1.46,0.15,3.06,0.29,4.51,0.29c3.78,0,7.13-0.73,8.73-4.22
		C264,220.93,260.22,219.76,256.15,219.76"/>
	<path id="XMLID_50_" class="st1" d="M242.17,225.58c5.38,1.31,6.69,3.2,11.06,3.78c4.51-0.15,3.93-1.02,11.79-3.78
		c0.58-0.15,1.16-1.31,0.29-2.18c-4.95-4.8-8.3-1.46-11.35-1.31c-4.08,0-7.86-3.49-11.93,1.16
		C241.3,224.13,241.01,225,242.17,225.58z"/>
	<polygon id="XMLID_51_" class="st1" points="439.52,507.2 439.52,482.75 430.79,482.75 430.79,477.8 454.08,477.8 454.08,482.75 
		445.49,482.75 445.49,507.2 	"/>
	<polygon id="XMLID_56_" class="st1" points="457.86,507.2 457.86,477.8 466.74,477.8 472.12,497.74 477.36,477.8 486.39,477.8 
		486.39,507.2 480.86,507.2 480.86,484.06 475.03,507.2 469.21,507.2 463.39,484.06 463.39,507.2 	"/>
</g>
</svg>
